M48
; DRILL file {KiCad 7.0.5-0} date 2023 December 18, Monday 03:22:31
; FORMAT={-:-/ absolute / metric / decimal}
; #@! TF.CreationDate,2023-12-18T03:22:31+03:00
; #@! TF.GenerationSoftware,Kicad,Pcbnew,7.0.5-0
; #@! TF.FileFunction,Plated,1,2,PTH
FMAT,2
METRIC
; #@! TA.AperFunction,Plated,PTH,ViaDrill
T1C0.400
; #@! TA.AperFunction,Plated,PTH,ComponentDrill
T2C0.800
; #@! TA.AperFunction,Plated,PTH,ComponentDrill
T3C1.000
%
G90
G05
T1
X115.491Y-81.889
T2
X122.375Y-118.205
X122.375Y-125.825
X122.385Y-71.48
X122.385Y-74.02
X122.385Y-76.56
X122.385Y-79.1
X122.385Y-81.64
X122.385Y-84.18
X122.385Y-86.72
X122.385Y-89.26
X122.385Y-91.8
X122.385Y-94.34
X122.385Y-96.88
X122.385Y-99.42
X122.385Y-101.96
X122.385Y-104.5
X124.915Y-118.205
X124.915Y-125.825
X127.455Y-118.205
X127.455Y-125.825
X129.995Y-118.205
X129.995Y-125.825
X132.535Y-118.205
X132.535Y-125.825
X135.075Y-118.205
X135.075Y-125.825
X137.615Y-118.205
X137.615Y-125.825
X137.625Y-71.48
X137.625Y-74.02
X137.625Y-76.56
X137.625Y-79.1
X137.625Y-81.64
X137.625Y-84.18
X137.625Y-86.72
X137.625Y-89.26
X137.625Y-91.8
X137.625Y-94.34
X137.625Y-96.88
X137.625Y-99.42
X137.625Y-101.96
X137.625Y-104.5
T3
X110.73Y-71.0
X110.73Y-73.54
X110.73Y-76.08
X110.73Y-78.62
X110.73Y-81.16
X110.73Y-83.7
X110.73Y-86.24
X110.73Y-88.78
X110.73Y-91.32
X110.73Y-93.86
X110.73Y-96.4
X110.73Y-98.94
X110.73Y-101.48
X110.73Y-104.02
X110.73Y-106.56
X110.73Y-109.1
X110.73Y-111.64
X110.73Y-114.18
X110.73Y-116.72
X110.73Y-119.26
X110.73Y-121.8
X110.73Y-124.34
X110.73Y-126.88
X113.27Y-71.0
X113.27Y-73.54
X113.27Y-76.08
X113.27Y-78.62
X113.27Y-81.16
X113.27Y-83.7
X113.27Y-86.24
X113.27Y-88.78
X113.27Y-91.32
X113.27Y-93.86
X113.27Y-96.4
X113.27Y-98.94
X113.27Y-101.48
X113.27Y-104.02
X113.27Y-106.56
X113.27Y-109.1
X113.27Y-111.64
X113.27Y-114.18
X113.27Y-116.72
X113.27Y-119.26
X113.27Y-121.8
X113.27Y-124.34
X113.27Y-126.88
T0
M30
