%TF.GenerationSoftware,KiCad,Pcbnew,7.0.5-0*%
%TF.CreationDate,2023-12-18T03:19:46+03:00*%
%TF.ProjectId,zx80-ram-expansion,7a783830-2d72-4616-9d2d-657870616e73,1.0*%
%TF.SameCoordinates,Original*%
%TF.FileFunction,Copper,L1,Top*%
%TF.FilePolarity,Positive*%
%FSLAX46Y46*%
G04 Gerber Fmt 4.6, Leading zero omitted, Abs format (unit mm)*
G04 Created by KiCad (PCBNEW 7.0.5-0) date 2023-12-18 03:19:46*
%MOMM*%
%LPD*%
G01*
G04 APERTURE LIST*
%TA.AperFunction,ComponentPad*%
%ADD10R,1.600000X1.600000*%
%TD*%
%TA.AperFunction,ComponentPad*%
%ADD11O,1.600000X1.600000*%
%TD*%
%TA.AperFunction,ComponentPad*%
%ADD12R,1.600000X2.400000*%
%TD*%
%TA.AperFunction,ComponentPad*%
%ADD13O,1.600000X2.400000*%
%TD*%
%TA.AperFunction,ComponentPad*%
%ADD14R,1.700000X1.700000*%
%TD*%
%TA.AperFunction,ComponentPad*%
%ADD15O,1.700000X1.700000*%
%TD*%
%TA.AperFunction,ViaPad*%
%ADD16C,0.800000*%
%TD*%
%TA.AperFunction,Conductor*%
%ADD17C,0.250000*%
%TD*%
G04 APERTURE END LIST*
D10*
%TO.P,U2,1,A14*%
%TO.N,GND*%
X137625000Y-104500000D03*
D11*
%TO.P,U2,2,A12*%
%TO.N,A12*%
X137625000Y-101960000D03*
%TO.P,U2,3,A7*%
%TO.N,A7*%
X137625000Y-99420000D03*
%TO.P,U2,4,A6*%
%TO.N,A6*%
X137625000Y-96880000D03*
%TO.P,U2,5,A5*%
%TO.N,A5*%
X137625000Y-94340000D03*
%TO.P,U2,6,A4*%
%TO.N,A4*%
X137625000Y-91800000D03*
%TO.P,U2,7,A3*%
%TO.N,A3*%
X137625000Y-89260000D03*
%TO.P,U2,8,A2*%
%TO.N,A2*%
X137625000Y-86720000D03*
%TO.P,U2,9,A1*%
%TO.N,A1*%
X137625000Y-84180000D03*
%TO.P,U2,10,A0*%
%TO.N,A0*%
X137625000Y-81640000D03*
%TO.P,U2,11,Q0*%
%TO.N,D0*%
X137625000Y-79100000D03*
%TO.P,U2,12,Q1*%
%TO.N,D1*%
X137625000Y-76560000D03*
%TO.P,U2,13,Q2*%
%TO.N,D2*%
X137625000Y-74020000D03*
%TO.P,U2,14,GND*%
%TO.N,GND*%
X137625000Y-71480000D03*
%TO.P,U2,15,Q3*%
%TO.N,D3*%
X122385000Y-71480000D03*
%TO.P,U2,16,Q4*%
%TO.N,D4*%
X122385000Y-74020000D03*
%TO.P,U2,17,Q5*%
%TO.N,D5*%
X122385000Y-76560000D03*
%TO.P,U2,18,Q6*%
%TO.N,D6*%
X122385000Y-79100000D03*
%TO.P,U2,19,Q7*%
%TO.N,D7*%
X122385000Y-81640000D03*
%TO.P,U2,20,~{CS}*%
%TO.N,Net-(U2-~{CS})*%
X122385000Y-84180000D03*
%TO.P,U2,21,A10*%
%TO.N,A10*%
X122385000Y-86720000D03*
%TO.P,U2,22,~{OE}*%
%TO.N,RD*%
X122385000Y-89260000D03*
%TO.P,U2,23,A11*%
%TO.N,A11*%
X122385000Y-91800000D03*
%TO.P,U2,24,A9*%
%TO.N,A9*%
X122385000Y-94340000D03*
%TO.P,U2,25,A8*%
%TO.N,A8*%
X122385000Y-96880000D03*
%TO.P,U2,26,A13*%
%TO.N,A13*%
X122385000Y-99420000D03*
%TO.P,U2,27,~{WE}*%
%TO.N,WR*%
X122385000Y-101960000D03*
%TO.P,U2,28,VCC*%
%TO.N,unconnected-(U2-VCC-Pad28)*%
X122385000Y-104500000D03*
%TD*%
D12*
%TO.P,U1,1*%
%TO.N,MREQ*%
X122375000Y-125825000D03*
D13*
%TO.P,U1,2*%
X124915000Y-125825000D03*
%TO.P,U1,3*%
%TO.N,Net-(U1-Pad3)*%
X127455000Y-125825000D03*
%TO.P,U1,4*%
%TO.N,A14*%
X129995000Y-125825000D03*
%TO.P,U1,5*%
%TO.N,Net-(U1-Pad3)*%
X132535000Y-125825000D03*
%TO.P,U1,6*%
%TO.N,Net-(U2-~{CS})*%
X135075000Y-125825000D03*
%TO.P,U1,7,GND*%
%TO.N,GND*%
X137615000Y-125825000D03*
%TO.P,U1,8*%
%TO.N,unconnected-(U1-Pad8)*%
X137615000Y-118205000D03*
%TO.P,U1,9*%
%TO.N,unconnected-(U1-Pad9)*%
X135075000Y-118205000D03*
%TO.P,U1,10*%
%TO.N,unconnected-(U1-Pad10)*%
X132535000Y-118205000D03*
%TO.P,U1,11*%
%TO.N,unconnected-(U1-Pad11)*%
X129995000Y-118205000D03*
%TO.P,U1,12*%
%TO.N,unconnected-(U1-Pad12)*%
X127455000Y-118205000D03*
%TO.P,U1,13*%
%TO.N,unconnected-(U1-Pad13)*%
X124915000Y-118205000D03*
%TO.P,U1,14,VCC*%
%TO.N,+5V*%
X122375000Y-118205000D03*
%TD*%
D14*
%TO.P,J1,1,Pin_1*%
%TO.N,+5V*%
X110730000Y-71000000D03*
D15*
%TO.P,J1,2,Pin_2*%
%TO.N,D7*%
X113270000Y-71000000D03*
%TO.P,J1,3,Pin_3*%
%TO.N,unconnected-(J1-Pin_3-Pad3)*%
X110730000Y-73540000D03*
%TO.P,J1,4,Pin_4*%
%TO.N,+5V*%
X113270000Y-73540000D03*
%TO.P,J1,5,Pin_5*%
%TO.N,unconnected-(J1-Pin_5-Pad5)*%
X110730000Y-76080000D03*
%TO.P,J1,6,Pin_6*%
%TO.N,unconnected-(J1-Pin_6-Pad6)*%
X113270000Y-76080000D03*
%TO.P,J1,7,Pin_7*%
%TO.N,GND*%
X110730000Y-78620000D03*
%TO.P,J1,8,Pin_8*%
%TO.N,D0*%
X113270000Y-78620000D03*
%TO.P,J1,9,Pin_9*%
%TO.N,GND*%
X110730000Y-81160000D03*
%TO.P,J1,10,Pin_10*%
%TO.N,D1*%
X113270000Y-81160000D03*
%TO.P,J1,11,Pin_11*%
%TO.N,unconnected-(J1-Pin_11-Pad11)*%
X110730000Y-83700000D03*
%TO.P,J1,12,Pin_12*%
%TO.N,D2*%
X113270000Y-83700000D03*
%TO.P,J1,13,Pin_13*%
%TO.N,A0*%
X110730000Y-86240000D03*
%TO.P,J1,14,Pin_14*%
%TO.N,D6*%
X113270000Y-86240000D03*
%TO.P,J1,15,Pin_15*%
%TO.N,A1*%
X110730000Y-88780000D03*
%TO.P,J1,16,Pin_16*%
%TO.N,D5*%
X113270000Y-88780000D03*
%TO.P,J1,17,Pin_17*%
%TO.N,A2*%
X110730000Y-91320000D03*
%TO.P,J1,18,Pin_18*%
%TO.N,D3*%
X113270000Y-91320000D03*
%TO.P,J1,19,Pin_19*%
%TO.N,A3*%
X110730000Y-93860000D03*
%TO.P,J1,20,Pin_20*%
%TO.N,D4*%
X113270000Y-93860000D03*
%TO.P,J1,21,Pin_21*%
%TO.N,unconnected-(J1-Pin_21-Pad21)*%
X110730000Y-96400000D03*
%TO.P,J1,22,Pin_22*%
%TO.N,unconnected-(J1-Pin_22-Pad22)*%
X113270000Y-96400000D03*
%TO.P,J1,23,Pin_23*%
%TO.N,A14*%
X110730000Y-98940000D03*
%TO.P,J1,24,Pin_24*%
%TO.N,unconnected-(J1-Pin_24-Pad24)*%
X113270000Y-98940000D03*
%TO.P,J1,25,Pin_25*%
%TO.N,A13*%
X110730000Y-101480000D03*
%TO.P,J1,26,Pin_26*%
%TO.N,unconnected-(J1-Pin_26-Pad26)*%
X113270000Y-101480000D03*
%TO.P,J1,27,Pin_27*%
%TO.N,A12*%
X110730000Y-104020000D03*
%TO.P,J1,28,Pin_28*%
%TO.N,MREQ*%
X113270000Y-104020000D03*
%TO.P,J1,29,Pin_29*%
%TO.N,A11*%
X110730000Y-106560000D03*
%TO.P,J1,30,Pin_30*%
%TO.N,unconnected-(J1-Pin_30-Pad30)*%
X113270000Y-106560000D03*
%TO.P,J1,31,Pin_31*%
%TO.N,A10*%
X110730000Y-109100000D03*
%TO.P,J1,32,Pin_32*%
%TO.N,RD*%
X113270000Y-109100000D03*
%TO.P,J1,33,Pin_33*%
%TO.N,A9*%
X110730000Y-111640000D03*
%TO.P,J1,34,Pin_34*%
%TO.N,WR*%
X113270000Y-111640000D03*
%TO.P,J1,35,Pin_35*%
%TO.N,A8*%
X110730000Y-114180000D03*
%TO.P,J1,36,Pin_36*%
%TO.N,unconnected-(J1-Pin_36-Pad36)*%
X113270000Y-114180000D03*
%TO.P,J1,37,Pin_37*%
%TO.N,A7*%
X110730000Y-116720000D03*
%TO.P,J1,38,Pin_38*%
%TO.N,unconnected-(J1-Pin_38-Pad38)*%
X113270000Y-116720000D03*
%TO.P,J1,39,Pin_39*%
%TO.N,A6*%
X110730000Y-119260000D03*
%TO.P,J1,40,Pin_40*%
%TO.N,unconnected-(J1-Pin_40-Pad40)*%
X113270000Y-119260000D03*
%TO.P,J1,41,Pin_41*%
%TO.N,A5*%
X110730000Y-121800000D03*
%TO.P,J1,42,Pin_42*%
%TO.N,unconnected-(J1-Pin_42-Pad42)*%
X113270000Y-121800000D03*
%TO.P,J1,43,Pin_43*%
%TO.N,A4*%
X110730000Y-124340000D03*
%TO.P,J1,44,Pin_44*%
%TO.N,unconnected-(J1-Pin_44-Pad44)*%
X113270000Y-124340000D03*
%TO.P,J1,45,Pin_45*%
%TO.N,unconnected-(J1-Pin_45-Pad45)*%
X110730000Y-126880000D03*
%TO.P,J1,46,Pin_46*%
%TO.N,unconnected-(J1-Pin_46-Pad46)*%
X113270000Y-126880000D03*
%TD*%
D16*
%TO.N,D4*%
X115491000Y-81888800D03*
%TD*%
D17*
%TO.N,Net-(U1-Pad3)*%
X132535000Y-125825000D02*
X132535000Y-127351900D01*
X132535000Y-127351900D02*
X127455000Y-127351900D01*
X127455000Y-125825000D02*
X127455000Y-127351900D01*
%TO.N,A14*%
X113711400Y-102750000D02*
X120000000Y-109038600D01*
X110730000Y-98940000D02*
X110730000Y-100116900D01*
X126406600Y-124298100D02*
X129995000Y-124298100D01*
X120000000Y-117891500D02*
X126406600Y-124298100D01*
X109514400Y-101026700D02*
X109514400Y-101938300D01*
X110424200Y-100116900D02*
X109514400Y-101026700D01*
X110326100Y-102750000D02*
X113711400Y-102750000D01*
X109514400Y-101938300D02*
X110326100Y-102750000D01*
X120000000Y-109038600D02*
X120000000Y-117891500D01*
X110730000Y-100116900D02*
X110424200Y-100116900D01*
X129995000Y-124298100D02*
X129995000Y-125825000D01*
%TO.N,Net-(U2-~{CS})*%
X135075000Y-125825000D02*
X135075000Y-124298100D01*
X133805000Y-123028100D02*
X133805000Y-96493400D01*
X122385000Y-84180000D02*
X122385000Y-85306900D01*
X122618500Y-85306900D02*
X122385000Y-85306900D01*
X135075000Y-124298100D02*
X133805000Y-123028100D01*
X133805000Y-96493400D02*
X122618500Y-85306900D01*
%TO.N,GND*%
X137625000Y-71480000D02*
X137625000Y-72606900D01*
X110730000Y-81160000D02*
X110730000Y-78620000D01*
X138751900Y-73452100D02*
X138751900Y-102528000D01*
X138751900Y-102528000D02*
X137906800Y-103373100D01*
X137906700Y-72606900D02*
X138751900Y-73452100D01*
X137625000Y-104500000D02*
X137625000Y-103373100D01*
X137906800Y-103373100D02*
X137625000Y-103373100D01*
X137625000Y-72606900D02*
X137906700Y-72606900D01*
%TO.N,D0*%
X136498100Y-79100000D02*
X132796600Y-82801500D01*
X113270000Y-78620000D02*
X114446900Y-78620000D01*
X132796600Y-82801500D02*
X118628400Y-82801500D01*
X118628400Y-82801500D02*
X114446900Y-78620000D01*
X137625000Y-79100000D02*
X136498100Y-79100000D01*
%TO.N,D4*%
X113637800Y-92683100D02*
X115491000Y-90829900D01*
X113270000Y-92683100D02*
X113637800Y-92683100D01*
X113270000Y-93860000D02*
X113270000Y-92683100D01*
X115491000Y-90829900D02*
X115491000Y-81888800D01*
%TO.N,D5*%
X109553100Y-84276200D02*
X109553100Y-70014600D01*
X113270000Y-87603100D02*
X112902100Y-87603100D01*
X112093100Y-85924100D02*
X111139000Y-84970000D01*
X111139000Y-84970000D02*
X110246900Y-84970000D01*
X122385000Y-76560000D02*
X121258100Y-76560000D01*
X109748100Y-69819600D02*
X114517700Y-69819600D01*
X110246900Y-84970000D02*
X109553100Y-84276200D01*
X113270000Y-88780000D02*
X113270000Y-87603100D01*
X112093100Y-86794100D02*
X112093100Y-85924100D01*
X112902100Y-87603100D02*
X112093100Y-86794100D01*
X109553100Y-70014600D02*
X109748100Y-69819600D01*
X114517700Y-69819600D02*
X121258100Y-76560000D01*
%TO.N,D7*%
X122385000Y-81640000D02*
X122385000Y-80513100D01*
X122385000Y-80513100D02*
X122179600Y-80513100D01*
X122179600Y-80513100D02*
X113843400Y-72176900D01*
X113270000Y-71000000D02*
X113270000Y-72176900D01*
X113843400Y-72176900D02*
X113270000Y-72176900D01*
%TO.N,+5V*%
X112932200Y-79983100D02*
X114624900Y-79983100D01*
X113270000Y-73540000D02*
X113270000Y-74716900D01*
X114624900Y-79983100D02*
X119000000Y-84358200D01*
X119000000Y-84358200D02*
X119000000Y-85000000D01*
X112052400Y-79103300D02*
X112932200Y-79983100D01*
X122761300Y-87990000D02*
X123532400Y-88761100D01*
X112902200Y-74716900D02*
X112052400Y-75566700D01*
X123532400Y-88761100D02*
X123532400Y-115520700D01*
X121990000Y-87990000D02*
X122761300Y-87990000D01*
X123532400Y-115520700D02*
X122375000Y-116678100D01*
X122375000Y-116678100D02*
X122375000Y-118205000D01*
X119000000Y-85000000D02*
X121990000Y-87990000D01*
X113270000Y-74716900D02*
X112902200Y-74716900D01*
X112052400Y-75566700D02*
X112052400Y-79103300D01*
%TO.N,A11*%
X121258100Y-91800000D02*
X115388100Y-97670000D01*
X110730000Y-106560000D02*
X110730000Y-105383100D01*
X110362200Y-105383100D02*
X110730000Y-105383100D01*
X109062500Y-104083400D02*
X110362200Y-105383100D01*
X109062500Y-98884100D02*
X109062500Y-104083400D01*
X110276600Y-97670000D02*
X109062500Y-98884100D01*
X122385000Y-91800000D02*
X121258100Y-91800000D01*
X115388100Y-97670000D02*
X110276600Y-97670000D01*
%TO.N,A13*%
X112888300Y-100130700D02*
X120547400Y-100130700D01*
X111906900Y-101480000D02*
X111906900Y-101112100D01*
X110730000Y-101480000D02*
X111906900Y-101480000D01*
X111906900Y-101112100D02*
X112888300Y-100130700D01*
X122385000Y-99420000D02*
X121258100Y-99420000D01*
X120547400Y-100130700D02*
X121258100Y-99420000D01*
%TO.N,MREQ*%
X123138400Y-124298100D02*
X124915000Y-124298100D01*
X118000000Y-119159700D02*
X123138400Y-124298100D01*
X113270000Y-105196900D02*
X113637800Y-105196900D01*
X118000000Y-109559100D02*
X118000000Y-119159700D01*
X113637800Y-105196900D02*
X118000000Y-109559100D01*
X124915000Y-125825000D02*
X124915000Y-124298100D01*
X113270000Y-104020000D02*
X113270000Y-105196900D01*
X122375000Y-125061500D02*
X123138400Y-124298100D01*
X122375000Y-125825000D02*
X122375000Y-125061500D01*
%TD*%
M02*
