%TF.GenerationSoftware,KiCad,Pcbnew,8.0.4*%
%TF.CreationDate,2024-09-04T09:34:53+03:00*%
%TF.ProjectId,zx80-ram-expansion,7a783830-2d72-4616-9d2d-657870616e73,1.0*%
%TF.SameCoordinates,Original*%
%TF.FileFunction,Copper,L1,Top*%
%TF.FilePolarity,Positive*%
%FSLAX46Y46*%
G04 Gerber Fmt 4.6, Leading zero omitted, Abs format (unit mm)*
G04 Created by KiCad (PCBNEW 8.0.4) date 2024-09-04 09:34:53*
%MOMM*%
%LPD*%
G01*
G04 APERTURE LIST*
%TA.AperFunction,ComponentPad*%
%ADD10R,1.600000X1.600000*%
%TD*%
%TA.AperFunction,ComponentPad*%
%ADD11O,1.600000X1.600000*%
%TD*%
%TA.AperFunction,ComponentPad*%
%ADD12R,1.600000X2.400000*%
%TD*%
%TA.AperFunction,ComponentPad*%
%ADD13O,1.600000X2.400000*%
%TD*%
%TA.AperFunction,ComponentPad*%
%ADD14R,1.700000X1.700000*%
%TD*%
%TA.AperFunction,ComponentPad*%
%ADD15O,1.700000X1.700000*%
%TD*%
%TA.AperFunction,Conductor*%
%ADD16C,0.250000*%
%TD*%
G04 APERTURE END LIST*
D10*
%TO.P,U2,1,A14*%
%TO.N,GND*%
X137625000Y-104500000D03*
D11*
%TO.P,U2,2,A12*%
%TO.N,A12*%
X137625000Y-101960000D03*
%TO.P,U2,3,A7*%
%TO.N,A7*%
X137625000Y-99420000D03*
%TO.P,U2,4,A6*%
%TO.N,A6*%
X137625000Y-96880000D03*
%TO.P,U2,5,A5*%
%TO.N,A5*%
X137625000Y-94340000D03*
%TO.P,U2,6,A4*%
%TO.N,A4*%
X137625000Y-91800000D03*
%TO.P,U2,7,A3*%
%TO.N,A3*%
X137625000Y-89260000D03*
%TO.P,U2,8,A2*%
%TO.N,A2*%
X137625000Y-86720000D03*
%TO.P,U2,9,A1*%
%TO.N,A1*%
X137625000Y-84180000D03*
%TO.P,U2,10,A0*%
%TO.N,A0*%
X137625000Y-81640000D03*
%TO.P,U2,11,Q0*%
%TO.N,D0*%
X137625000Y-79100000D03*
%TO.P,U2,12,Q1*%
%TO.N,D1*%
X137625000Y-76560000D03*
%TO.P,U2,13,Q2*%
%TO.N,D2*%
X137625000Y-74020000D03*
%TO.P,U2,14,GND*%
%TO.N,GND*%
X137625000Y-71480000D03*
%TO.P,U2,15,Q3*%
%TO.N,D3*%
X122385000Y-71480000D03*
%TO.P,U2,16,Q4*%
%TO.N,D4*%
X122385000Y-74020000D03*
%TO.P,U2,17,Q5*%
%TO.N,D5*%
X122385000Y-76560000D03*
%TO.P,U2,18,Q6*%
%TO.N,D6*%
X122385000Y-79100000D03*
%TO.P,U2,19,Q7*%
%TO.N,D7*%
X122385000Y-81640000D03*
%TO.P,U2,20,~{CS}*%
%TO.N,Net-(U2-~{CS})*%
X122385000Y-84180000D03*
%TO.P,U2,21,A10*%
%TO.N,A10*%
X122385000Y-86720000D03*
%TO.P,U2,22,~{OE}*%
%TO.N,RD*%
X122385000Y-89260000D03*
%TO.P,U2,23,A11*%
%TO.N,A11*%
X122385000Y-91800000D03*
%TO.P,U2,24,A9*%
%TO.N,A9*%
X122385000Y-94340000D03*
%TO.P,U2,25,A8*%
%TO.N,A8*%
X122385000Y-96880000D03*
%TO.P,U2,26,A13*%
%TO.N,A13*%
X122385000Y-99420000D03*
%TO.P,U2,27,~{WE}*%
%TO.N,WR*%
X122385000Y-101960000D03*
%TO.P,U2,28,VCC*%
%TO.N,unconnected-(U2-VCC-Pad28)*%
X122385000Y-104500000D03*
%TD*%
D12*
%TO.P,U1,1*%
%TO.N,MREQ*%
X122375000Y-125825000D03*
D13*
%TO.P,U1,2*%
X124915000Y-125825000D03*
%TO.P,U1,3*%
%TO.N,Net-(U1-Pad3)*%
X127455000Y-125825000D03*
%TO.P,U1,4*%
%TO.N,A14*%
X129995000Y-125825000D03*
%TO.P,U1,5*%
%TO.N,Net-(U1-Pad3)*%
X132535000Y-125825000D03*
%TO.P,U1,6*%
%TO.N,Net-(U2-~{CS})*%
X135075000Y-125825000D03*
%TO.P,U1,7,GND*%
%TO.N,GND*%
X137615000Y-125825000D03*
%TO.P,U1,8*%
%TO.N,unconnected-(U1-Pad8)*%
X137615000Y-118205000D03*
%TO.P,U1,9*%
%TO.N,unconnected-(U1-Pad9)*%
X135075000Y-118205000D03*
%TO.P,U1,10*%
%TO.N,unconnected-(U1-Pad10)*%
X132535000Y-118205000D03*
%TO.P,U1,11*%
%TO.N,unconnected-(U1-Pad11)*%
X129995000Y-118205000D03*
%TO.P,U1,12*%
%TO.N,unconnected-(U1-Pad12)*%
X127455000Y-118205000D03*
%TO.P,U1,13*%
%TO.N,unconnected-(U1-Pad13)*%
X124915000Y-118205000D03*
%TO.P,U1,14,VCC*%
%TO.N,+5V*%
X122375000Y-118205000D03*
%TD*%
D14*
%TO.P,J1,1,Pin_1*%
%TO.N,+5V*%
X110730000Y-71000000D03*
D15*
%TO.P,J1,2,Pin_2*%
%TO.N,D7*%
X113270000Y-71000000D03*
%TO.P,J1,3,Pin_3*%
%TO.N,unconnected-(J1-Pin_3-Pad3)*%
X110730000Y-73540000D03*
%TO.P,J1,4,Pin_4*%
%TO.N,+5V*%
X113270000Y-73540000D03*
%TO.P,J1,5,Pin_5*%
%TO.N,unconnected-(J1-Pin_5-Pad5)*%
X110730000Y-76080000D03*
%TO.P,J1,6,Pin_6*%
%TO.N,unconnected-(J1-Pin_6-Pad6)*%
X113270000Y-76080000D03*
%TO.P,J1,7,Pin_7*%
%TO.N,GND*%
X110730000Y-78620000D03*
%TO.P,J1,8,Pin_8*%
%TO.N,D0*%
X113270000Y-78620000D03*
%TO.P,J1,9,Pin_9*%
%TO.N,GND*%
X110730000Y-81160000D03*
%TO.P,J1,10,Pin_10*%
%TO.N,D1*%
X113270000Y-81160000D03*
%TO.P,J1,11,Pin_11*%
%TO.N,unconnected-(J1-Pin_11-Pad11)*%
X110730000Y-83700000D03*
%TO.P,J1,12,Pin_12*%
%TO.N,D2*%
X113270000Y-83700000D03*
%TO.P,J1,13,Pin_13*%
%TO.N,A0*%
X110730000Y-86240000D03*
%TO.P,J1,14,Pin_14*%
%TO.N,D6*%
X113270000Y-86240000D03*
%TO.P,J1,15,Pin_15*%
%TO.N,A1*%
X110730000Y-88780000D03*
%TO.P,J1,16,Pin_16*%
%TO.N,D5*%
X113270000Y-88780000D03*
%TO.P,J1,17,Pin_17*%
%TO.N,A2*%
X110730000Y-91320000D03*
%TO.P,J1,18,Pin_18*%
%TO.N,D3*%
X113270000Y-91320000D03*
%TO.P,J1,19,Pin_19*%
%TO.N,A3*%
X110730000Y-93860000D03*
%TO.P,J1,20,Pin_20*%
%TO.N,D4*%
X113270000Y-93860000D03*
%TO.P,J1,21,Pin_21*%
%TO.N,unconnected-(J1-Pin_21-Pad21)*%
X110730000Y-96400000D03*
%TO.P,J1,22,Pin_22*%
%TO.N,unconnected-(J1-Pin_22-Pad22)*%
X113270000Y-96400000D03*
%TO.P,J1,23,Pin_23*%
%TO.N,A14*%
X110730000Y-98940000D03*
%TO.P,J1,24,Pin_24*%
%TO.N,unconnected-(J1-Pin_24-Pad24)*%
X113270000Y-98940000D03*
%TO.P,J1,25,Pin_25*%
%TO.N,A13*%
X110730000Y-101480000D03*
%TO.P,J1,26,Pin_26*%
%TO.N,unconnected-(J1-Pin_26-Pad26)*%
X113270000Y-101480000D03*
%TO.P,J1,27,Pin_27*%
%TO.N,A12*%
X110730000Y-104020000D03*
%TO.P,J1,28,Pin_28*%
%TO.N,MREQ*%
X113270000Y-104020000D03*
%TO.P,J1,29,Pin_29*%
%TO.N,A11*%
X110730000Y-106560000D03*
%TO.P,J1,30,Pin_30*%
%TO.N,unconnected-(J1-Pin_30-Pad30)*%
X113270000Y-106560000D03*
%TO.P,J1,31,Pin_31*%
%TO.N,A10*%
X110730000Y-109100000D03*
%TO.P,J1,32,Pin_32*%
%TO.N,RD*%
X113270000Y-109100000D03*
%TO.P,J1,33,Pin_33*%
%TO.N,A9*%
X110730000Y-111640000D03*
%TO.P,J1,34,Pin_34*%
%TO.N,WR*%
X113270000Y-111640000D03*
%TO.P,J1,35,Pin_35*%
%TO.N,A8*%
X110730000Y-114180000D03*
%TO.P,J1,36,Pin_36*%
%TO.N,unconnected-(J1-Pin_36-Pad36)*%
X113270000Y-114180000D03*
%TO.P,J1,37,Pin_37*%
%TO.N,A7*%
X110730000Y-116720000D03*
%TO.P,J1,38,Pin_38*%
%TO.N,unconnected-(J1-Pin_38-Pad38)*%
X113270000Y-116720000D03*
%TO.P,J1,39,Pin_39*%
%TO.N,A6*%
X110730000Y-119260000D03*
%TO.P,J1,40,Pin_40*%
%TO.N,unconnected-(J1-Pin_40-Pad40)*%
X113270000Y-119260000D03*
%TO.P,J1,41,Pin_41*%
%TO.N,A5*%
X110730000Y-121800000D03*
%TO.P,J1,42,Pin_42*%
%TO.N,unconnected-(J1-Pin_42-Pad42)*%
X113270000Y-121800000D03*
%TO.P,J1,43,Pin_43*%
%TO.N,A4*%
X110730000Y-124340000D03*
%TO.P,J1,44,Pin_44*%
%TO.N,unconnected-(J1-Pin_44-Pad44)*%
X113270000Y-124340000D03*
%TO.P,J1,45,Pin_45*%
%TO.N,unconnected-(J1-Pin_45-Pad45)*%
X110730000Y-126880000D03*
%TO.P,J1,46,Pin_46*%
%TO.N,unconnected-(J1-Pin_46-Pad46)*%
X113270000Y-126880000D03*
%TD*%
D16*
%TO.N,Net-(U1-Pad3)*%
X132535000Y-125825000D02*
X132535000Y-127351900D01*
X132535000Y-127351900D02*
X127455000Y-127351900D01*
X127455000Y-125825000D02*
X127455000Y-127351900D01*
%TO.N,A14*%
X113711400Y-102750000D02*
X120000000Y-109038600D01*
X110730000Y-98940000D02*
X110730000Y-100116900D01*
X126406600Y-124298100D02*
X129995000Y-124298100D01*
X120000000Y-117891500D02*
X126406600Y-124298100D01*
X109514400Y-101026700D02*
X109514400Y-101938300D01*
X110424200Y-100116900D02*
X109514400Y-101026700D01*
X110326100Y-102750000D02*
X113711400Y-102750000D01*
X109514400Y-101938300D02*
X110326100Y-102750000D01*
X120000000Y-109038600D02*
X120000000Y-117891500D01*
X110730000Y-100116900D02*
X110424200Y-100116900D01*
X129995000Y-124298100D02*
X129995000Y-125825000D01*
%TO.N,Net-(U2-~{CS})*%
X135075000Y-125825000D02*
X135075000Y-124298100D01*
X133805000Y-123028100D02*
X133805000Y-96493400D01*
X122385000Y-84180000D02*
X122385000Y-85306900D01*
X122618500Y-85306900D02*
X122385000Y-85306900D01*
X135075000Y-124298100D02*
X133805000Y-123028100D01*
X133805000Y-96493400D02*
X122618500Y-85306900D01*
%TO.N,GND*%
X137625000Y-71480000D02*
X137625000Y-72606900D01*
X110730000Y-81160000D02*
X110730000Y-78620000D01*
X138751900Y-73452100D02*
X138751900Y-102528000D01*
X138751900Y-102528000D02*
X137906800Y-103373100D01*
X137906700Y-72606900D02*
X138751900Y-73452100D01*
X137625000Y-104500000D02*
X137625000Y-103373100D01*
X137906800Y-103373100D02*
X137625000Y-103373100D01*
X137625000Y-72606900D02*
X137906700Y-72606900D01*
%TO.N,D0*%
X136498100Y-79100000D02*
X132796600Y-82801500D01*
X113270000Y-78620000D02*
X114446900Y-78620000D01*
X132796600Y-82801500D02*
X118628400Y-82801500D01*
X118628400Y-82801500D02*
X114446900Y-78620000D01*
X137625000Y-79100000D02*
X136498100Y-79100000D01*
%TO.N,D4*%
X122385000Y-74020000D02*
X124000000Y-72405000D01*
X110000000Y-95000000D02*
X109000000Y-94000000D01*
X109000000Y-69000000D02*
X109000000Y-94000000D01*
X112095000Y-95035000D02*
X113270000Y-93860000D01*
X110000000Y-95035000D02*
X112095000Y-95035000D01*
X123000000Y-69000000D02*
X109000000Y-69000000D01*
X124000000Y-72405000D02*
X124000000Y-70000000D01*
X123000000Y-69000000D02*
X124000000Y-70000000D01*
X110000000Y-95035000D02*
X110000000Y-95000000D01*
%TO.N,D5*%
X109553100Y-84276200D02*
X109553100Y-70014600D01*
X113270000Y-87603100D02*
X112902100Y-87603100D01*
X112093100Y-85924100D02*
X111139000Y-84970000D01*
X111139000Y-84970000D02*
X110246900Y-84970000D01*
X122385000Y-76560000D02*
X121258100Y-76560000D01*
X109748100Y-69819600D02*
X114517700Y-69819600D01*
X110246900Y-84970000D02*
X109553100Y-84276200D01*
X113270000Y-88780000D02*
X113270000Y-87603100D01*
X112093100Y-86794100D02*
X112093100Y-85924100D01*
X112902100Y-87603100D02*
X112093100Y-86794100D01*
X109553100Y-70014600D02*
X109748100Y-69819600D01*
X114517700Y-69819600D02*
X121258100Y-76560000D01*
%TO.N,D7*%
X122385000Y-81640000D02*
X122385000Y-80513100D01*
X122385000Y-80513100D02*
X122179600Y-80513100D01*
X122179600Y-80513100D02*
X113843400Y-72176900D01*
X113270000Y-71000000D02*
X113270000Y-72176900D01*
X113843400Y-72176900D02*
X113270000Y-72176900D01*
%TO.N,+5V*%
X114624900Y-79983100D02*
X121000000Y-86358200D01*
X113270000Y-74716900D02*
X112902200Y-74716900D01*
X123532400Y-115520700D02*
X122375000Y-116678100D01*
X122761300Y-87990000D02*
X123532400Y-88761100D01*
X112902200Y-74716900D02*
X112052400Y-75566700D01*
X113270000Y-73540000D02*
X113270000Y-74716900D01*
X112052400Y-79103300D02*
X112932200Y-79983100D01*
X123532400Y-88761100D02*
X123532400Y-115520700D01*
X121000000Y-87000000D02*
X121990000Y-87990000D01*
X121990000Y-87990000D02*
X122761300Y-87990000D01*
X121000000Y-86358200D02*
X121000000Y-87000000D01*
X122375000Y-116678100D02*
X122375000Y-118205000D01*
X112932200Y-79983100D02*
X114624900Y-79983100D01*
X112052400Y-75566700D02*
X112052400Y-79103300D01*
%TO.N,A11*%
X121258100Y-91800000D02*
X115388100Y-97670000D01*
X110730000Y-106560000D02*
X110730000Y-105383100D01*
X110362200Y-105383100D02*
X110730000Y-105383100D01*
X109062500Y-104083400D02*
X110362200Y-105383100D01*
X109062500Y-98884100D02*
X109062500Y-104083400D01*
X110276600Y-97670000D02*
X109062500Y-98884100D01*
X122385000Y-91800000D02*
X121258100Y-91800000D01*
X115388100Y-97670000D02*
X110276600Y-97670000D01*
%TO.N,A13*%
X112888300Y-100130700D02*
X120547400Y-100130700D01*
X111906900Y-101480000D02*
X111906900Y-101112100D01*
X110730000Y-101480000D02*
X111906900Y-101480000D01*
X111906900Y-101112100D02*
X112888300Y-100130700D01*
X122385000Y-99420000D02*
X121258100Y-99420000D01*
X120547400Y-100130700D02*
X121258100Y-99420000D01*
%TO.N,MREQ*%
X123138400Y-124298100D02*
X124915000Y-124298100D01*
X118000000Y-119159700D02*
X123138400Y-124298100D01*
X113270000Y-105196900D02*
X113637800Y-105196900D01*
X118000000Y-109559100D02*
X118000000Y-119159700D01*
X113637800Y-105196900D02*
X118000000Y-109559100D01*
X124915000Y-125825000D02*
X124915000Y-124298100D01*
X113270000Y-104020000D02*
X113270000Y-105196900D01*
X122375000Y-125061500D02*
X123138400Y-124298100D01*
X122375000Y-125825000D02*
X122375000Y-125061500D01*
%TD*%
%TA.AperFunction,Conductor*%
%TO.N,GND*%
G36*
X110980000Y-80726988D02*
G01*
X110922993Y-80694075D01*
X110795826Y-80660000D01*
X110664174Y-80660000D01*
X110537007Y-80694075D01*
X110480000Y-80726988D01*
X110480000Y-79053012D01*
X110537007Y-79085925D01*
X110664174Y-79120000D01*
X110795826Y-79120000D01*
X110922993Y-79085925D01*
X110980000Y-79053012D01*
X110980000Y-80726988D01*
G37*
%TD.AperFunction*%
%TA.AperFunction,Conductor*%
G36*
X140943039Y-68019685D02*
G01*
X140988794Y-68072489D01*
X141000000Y-68124000D01*
X141000000Y-129876000D01*
X140980315Y-129943039D01*
X140927511Y-129988794D01*
X140876000Y-130000000D01*
X108124000Y-130000000D01*
X108056961Y-129980315D01*
X108011206Y-129927511D01*
X108000000Y-129876000D01*
X108000000Y-68938389D01*
X108374500Y-68938389D01*
X108374500Y-94061611D01*
X108398535Y-94182444D01*
X108398540Y-94182461D01*
X108445685Y-94296281D01*
X108445688Y-94296286D01*
X108470829Y-94333911D01*
X108470830Y-94333914D01*
X108470831Y-94333914D01*
X108514140Y-94398731D01*
X108514141Y-94398732D01*
X108514142Y-94398733D01*
X108601267Y-94485858D01*
X108601268Y-94485858D01*
X108608335Y-94492925D01*
X108608334Y-94492925D01*
X108608338Y-94492928D01*
X109435026Y-95319617D01*
X109450447Y-95338407D01*
X109514141Y-95433733D01*
X109583956Y-95503548D01*
X109617441Y-95564871D01*
X109612457Y-95634563D01*
X109597851Y-95662351D01*
X109555964Y-95722172D01*
X109456097Y-95936335D01*
X109456094Y-95936344D01*
X109394938Y-96164586D01*
X109394936Y-96164596D01*
X109374341Y-96399999D01*
X109374341Y-96400000D01*
X109394936Y-96635403D01*
X109394938Y-96635413D01*
X109456094Y-96863655D01*
X109456096Y-96863659D01*
X109456097Y-96863663D01*
X109555965Y-97077830D01*
X109672639Y-97244457D01*
X109694966Y-97310664D01*
X109677956Y-97378431D01*
X109658745Y-97403262D01*
X108912009Y-98150000D01*
X108663769Y-98398240D01*
X108663767Y-98398242D01*
X108620203Y-98441805D01*
X108576640Y-98485368D01*
X108553835Y-98519499D01*
X108508186Y-98587816D01*
X108508185Y-98587818D01*
X108474847Y-98668307D01*
X108469323Y-98681643D01*
X108461037Y-98701645D01*
X108461035Y-98701653D01*
X108437000Y-98822489D01*
X108437000Y-104145010D01*
X108461035Y-104265844D01*
X108461037Y-104265852D01*
X108474847Y-104299192D01*
X108474847Y-104299193D01*
X108508185Y-104379680D01*
X108508190Y-104379689D01*
X108542414Y-104430907D01*
X108542415Y-104430909D01*
X108576640Y-104482131D01*
X108576641Y-104482132D01*
X108576642Y-104482133D01*
X108663767Y-104569258D01*
X108663768Y-104569258D01*
X108670835Y-104576325D01*
X108670834Y-104576325D01*
X108670838Y-104576328D01*
X109655657Y-105561148D01*
X109689142Y-105622471D01*
X109684158Y-105692163D01*
X109669551Y-105719952D01*
X109555965Y-105882169D01*
X109555964Y-105882171D01*
X109456098Y-106096335D01*
X109456094Y-106096344D01*
X109394938Y-106324586D01*
X109394936Y-106324596D01*
X109374341Y-106559999D01*
X109374341Y-106560000D01*
X109394936Y-106795403D01*
X109394938Y-106795413D01*
X109456094Y-107023655D01*
X109456096Y-107023659D01*
X109456097Y-107023663D01*
X109536004Y-107195023D01*
X109555965Y-107237830D01*
X109555967Y-107237834D01*
X109664281Y-107392521D01*
X109691501Y-107431396D01*
X109691506Y-107431402D01*
X109858597Y-107598493D01*
X109858603Y-107598498D01*
X110044158Y-107728425D01*
X110087783Y-107783002D01*
X110094977Y-107852500D01*
X110063454Y-107914855D01*
X110044158Y-107931575D01*
X109858597Y-108061505D01*
X109691505Y-108228597D01*
X109555965Y-108422169D01*
X109555964Y-108422171D01*
X109456098Y-108636335D01*
X109456094Y-108636344D01*
X109394938Y-108864586D01*
X109394936Y-108864596D01*
X109374341Y-109099999D01*
X109374341Y-109100000D01*
X109394936Y-109335403D01*
X109394938Y-109335413D01*
X109456094Y-109563655D01*
X109456096Y-109563659D01*
X109456097Y-109563663D01*
X109460000Y-109572032D01*
X109555965Y-109777830D01*
X109555967Y-109777834D01*
X109584225Y-109818190D01*
X109691501Y-109971396D01*
X109691506Y-109971402D01*
X109858597Y-110138493D01*
X109858603Y-110138498D01*
X110044158Y-110268425D01*
X110087783Y-110323002D01*
X110094977Y-110392500D01*
X110063454Y-110454855D01*
X110044158Y-110471575D01*
X109858597Y-110601505D01*
X109691505Y-110768597D01*
X109555965Y-110962169D01*
X109555964Y-110962171D01*
X109456098Y-111176335D01*
X109456094Y-111176344D01*
X109394938Y-111404586D01*
X109394936Y-111404596D01*
X109374341Y-111639999D01*
X109374341Y-111640000D01*
X109394936Y-111875403D01*
X109394938Y-111875413D01*
X109456094Y-112103655D01*
X109456096Y-112103659D01*
X109456097Y-112103663D01*
X109460000Y-112112032D01*
X109555965Y-112317830D01*
X109555967Y-112317834D01*
X109664281Y-112472521D01*
X109691501Y-112511396D01*
X109691506Y-112511402D01*
X109858597Y-112678493D01*
X109858603Y-112678498D01*
X110044158Y-112808425D01*
X110087783Y-112863002D01*
X110094977Y-112932500D01*
X110063454Y-112994855D01*
X110044158Y-113011575D01*
X109858597Y-113141505D01*
X109691505Y-113308597D01*
X109555965Y-113502169D01*
X109555964Y-113502171D01*
X109456098Y-113716335D01*
X109456094Y-113716344D01*
X109394938Y-113944586D01*
X109394936Y-113944596D01*
X109374341Y-114179999D01*
X109374341Y-114180000D01*
X109394936Y-114415403D01*
X109394938Y-114415413D01*
X109456094Y-114643655D01*
X109456096Y-114643659D01*
X109456097Y-114643663D01*
X109460000Y-114652032D01*
X109555965Y-114857830D01*
X109555967Y-114857834D01*
X109664281Y-115012521D01*
X109691501Y-115051396D01*
X109691506Y-115051402D01*
X109858597Y-115218493D01*
X109858603Y-115218498D01*
X110044158Y-115348425D01*
X110087783Y-115403002D01*
X110094977Y-115472500D01*
X110063454Y-115534855D01*
X110044158Y-115551575D01*
X109858597Y-115681505D01*
X109691505Y-115848597D01*
X109555965Y-116042169D01*
X109555964Y-116042171D01*
X109456098Y-116256335D01*
X109456094Y-116256344D01*
X109394938Y-116484586D01*
X109394936Y-116484596D01*
X109374341Y-116719999D01*
X109374341Y-116720000D01*
X109394936Y-116955403D01*
X109394938Y-116955413D01*
X109456094Y-117183655D01*
X109456096Y-117183659D01*
X109456097Y-117183663D01*
X109513042Y-117305781D01*
X109555965Y-117397830D01*
X109555967Y-117397834D01*
X109634564Y-117510081D01*
X109691501Y-117591396D01*
X109691506Y-117591402D01*
X109858597Y-117758493D01*
X109858603Y-117758498D01*
X110044158Y-117888425D01*
X110087783Y-117943002D01*
X110094977Y-118012500D01*
X110063454Y-118074855D01*
X110044158Y-118091575D01*
X109858597Y-118221505D01*
X109691505Y-118388597D01*
X109555965Y-118582169D01*
X109555964Y-118582171D01*
X109456098Y-118796335D01*
X109456094Y-118796344D01*
X109394938Y-119024586D01*
X109394936Y-119024596D01*
X109374341Y-119259999D01*
X109374341Y-119260000D01*
X109394936Y-119495403D01*
X109394936Y-119495405D01*
X109394937Y-119495408D01*
X109394937Y-119495409D01*
X109394938Y-119495410D01*
X109456094Y-119723655D01*
X109456096Y-119723659D01*
X109456097Y-119723663D01*
X109522772Y-119866647D01*
X109555965Y-119937830D01*
X109555967Y-119937834D01*
X109567873Y-119954837D01*
X109691501Y-120131396D01*
X109691506Y-120131402D01*
X109858597Y-120298493D01*
X109858603Y-120298498D01*
X110044158Y-120428425D01*
X110087783Y-120483002D01*
X110094977Y-120552500D01*
X110063454Y-120614855D01*
X110044158Y-120631575D01*
X109858597Y-120761505D01*
X109691505Y-120928597D01*
X109555965Y-121122169D01*
X109555964Y-121122171D01*
X109456098Y-121336335D01*
X109456094Y-121336344D01*
X109394938Y-121564586D01*
X109394936Y-121564596D01*
X109374341Y-121799999D01*
X109374341Y-121800000D01*
X109394936Y-122035403D01*
X109394938Y-122035413D01*
X109456094Y-122263655D01*
X109456096Y-122263659D01*
X109456097Y-122263663D01*
X109460000Y-122272032D01*
X109555965Y-122477830D01*
X109555967Y-122477834D01*
X109664281Y-122632521D01*
X109691501Y-122671396D01*
X109691506Y-122671402D01*
X109858597Y-122838493D01*
X109858603Y-122838498D01*
X110044158Y-122968425D01*
X110087783Y-123023002D01*
X110094977Y-123092500D01*
X110063454Y-123154855D01*
X110044158Y-123171575D01*
X109858597Y-123301505D01*
X109691505Y-123468597D01*
X109555965Y-123662169D01*
X109555964Y-123662171D01*
X109456098Y-123876335D01*
X109456094Y-123876344D01*
X109394938Y-124104586D01*
X109394936Y-124104596D01*
X109374341Y-124339999D01*
X109374341Y-124340000D01*
X109394936Y-124575403D01*
X109394938Y-124575413D01*
X109456094Y-124803655D01*
X109456096Y-124803659D01*
X109456097Y-124803663D01*
X109512025Y-124923600D01*
X109555965Y-125017830D01*
X109555967Y-125017834D01*
X109627913Y-125120582D01*
X109691501Y-125211396D01*
X109691506Y-125211402D01*
X109858597Y-125378493D01*
X109858603Y-125378498D01*
X110044158Y-125508425D01*
X110087783Y-125563002D01*
X110094977Y-125632500D01*
X110063454Y-125694855D01*
X110044158Y-125711575D01*
X109858597Y-125841505D01*
X109691505Y-126008597D01*
X109555965Y-126202169D01*
X109555964Y-126202171D01*
X109456098Y-126416335D01*
X109456094Y-126416344D01*
X109394938Y-126644586D01*
X109394936Y-126644596D01*
X109374341Y-126879999D01*
X109374341Y-126880000D01*
X109394936Y-127115403D01*
X109394938Y-127115413D01*
X109456094Y-127343655D01*
X109456096Y-127343659D01*
X109456097Y-127343663D01*
X109514446Y-127468793D01*
X109555965Y-127557830D01*
X109555967Y-127557834D01*
X109619231Y-127648183D01*
X109691505Y-127751401D01*
X109858599Y-127918495D01*
X109908393Y-127953361D01*
X110052165Y-128054032D01*
X110052167Y-128054033D01*
X110052170Y-128054035D01*
X110266337Y-128153903D01*
X110494592Y-128215063D01*
X110682918Y-128231539D01*
X110729999Y-128235659D01*
X110730000Y-128235659D01*
X110730001Y-128235659D01*
X110769234Y-128232226D01*
X110965408Y-128215063D01*
X111193663Y-128153903D01*
X111407830Y-128054035D01*
X111601401Y-127918495D01*
X111768495Y-127751401D01*
X111898425Y-127565842D01*
X111953002Y-127522217D01*
X112022500Y-127515023D01*
X112084855Y-127546546D01*
X112101575Y-127565842D01*
X112231500Y-127751395D01*
X112231505Y-127751401D01*
X112398599Y-127918495D01*
X112448393Y-127953361D01*
X112592165Y-128054032D01*
X112592167Y-128054033D01*
X112592170Y-128054035D01*
X112806337Y-128153903D01*
X113034592Y-128215063D01*
X113222918Y-128231539D01*
X113269999Y-128235659D01*
X113270000Y-128235659D01*
X113270001Y-128235659D01*
X113309234Y-128232226D01*
X113505408Y-128215063D01*
X113733663Y-128153903D01*
X113947830Y-128054035D01*
X114141401Y-127918495D01*
X114308495Y-127751401D01*
X114444035Y-127557830D01*
X114543903Y-127343663D01*
X114605063Y-127115408D01*
X114625659Y-126880000D01*
X114605063Y-126644592D01*
X114543903Y-126416337D01*
X114444035Y-126202171D01*
X114438425Y-126194158D01*
X114308494Y-126008597D01*
X114141402Y-125841506D01*
X114141396Y-125841501D01*
X113955842Y-125711575D01*
X113912217Y-125656998D01*
X113905023Y-125587500D01*
X113936546Y-125525145D01*
X113955842Y-125508425D01*
X114074985Y-125425000D01*
X114141401Y-125378495D01*
X114308495Y-125211401D01*
X114444035Y-125017830D01*
X114543903Y-124803663D01*
X114605063Y-124575408D01*
X114625659Y-124340000D01*
X114605063Y-124104592D01*
X114543903Y-123876337D01*
X114444035Y-123662171D01*
X114438425Y-123654158D01*
X114308494Y-123468597D01*
X114141402Y-123301506D01*
X114141396Y-123301501D01*
X113955842Y-123171575D01*
X113912217Y-123116998D01*
X113905023Y-123047500D01*
X113936546Y-122985145D01*
X113955842Y-122968425D01*
X113978026Y-122952891D01*
X114141401Y-122838495D01*
X114308495Y-122671401D01*
X114444035Y-122477830D01*
X114543903Y-122263663D01*
X114605063Y-122035408D01*
X114625659Y-121800000D01*
X114605063Y-121564592D01*
X114543903Y-121336337D01*
X114444035Y-121122171D01*
X114438425Y-121114158D01*
X114308494Y-120928597D01*
X114141402Y-120761506D01*
X114141396Y-120761501D01*
X113955842Y-120631575D01*
X113912217Y-120576998D01*
X113905023Y-120507500D01*
X113936546Y-120445145D01*
X113955842Y-120428425D01*
X113978026Y-120412891D01*
X114141401Y-120298495D01*
X114308495Y-120131401D01*
X114444035Y-119937830D01*
X114543903Y-119723663D01*
X114605063Y-119495408D01*
X114625659Y-119260000D01*
X114605063Y-119024592D01*
X114543903Y-118796337D01*
X114444035Y-118582171D01*
X114438425Y-118574158D01*
X114308494Y-118388597D01*
X114141401Y-118221505D01*
X114141396Y-118221501D01*
X113955842Y-118091575D01*
X113912217Y-118036998D01*
X113905023Y-117967500D01*
X113936546Y-117905145D01*
X113955842Y-117888425D01*
X114107765Y-117782047D01*
X114141401Y-117758495D01*
X114308495Y-117591401D01*
X114444035Y-117397830D01*
X114543903Y-117183663D01*
X114605063Y-116955408D01*
X114625659Y-116720000D01*
X114605063Y-116484592D01*
X114543903Y-116256337D01*
X114444035Y-116042171D01*
X114438425Y-116034158D01*
X114308494Y-115848597D01*
X114141402Y-115681506D01*
X114141396Y-115681501D01*
X113955842Y-115551575D01*
X113912217Y-115496998D01*
X113905023Y-115427500D01*
X113936546Y-115365145D01*
X113955842Y-115348425D01*
X114027959Y-115297928D01*
X114141401Y-115218495D01*
X114308495Y-115051401D01*
X114444035Y-114857830D01*
X114543903Y-114643663D01*
X114605063Y-114415408D01*
X114625659Y-114180000D01*
X114605063Y-113944592D01*
X114543903Y-113716337D01*
X114444035Y-113502171D01*
X114438425Y-113494158D01*
X114308494Y-113308597D01*
X114141402Y-113141506D01*
X114141396Y-113141501D01*
X113955842Y-113011575D01*
X113912217Y-112956998D01*
X113905023Y-112887500D01*
X113936546Y-112825145D01*
X113955842Y-112808425D01*
X113978026Y-112792891D01*
X114141401Y-112678495D01*
X114308495Y-112511401D01*
X114444035Y-112317830D01*
X114543903Y-112103663D01*
X114605063Y-111875408D01*
X114625659Y-111640000D01*
X114605063Y-111404592D01*
X114543903Y-111176337D01*
X114444035Y-110962171D01*
X114438425Y-110954158D01*
X114308494Y-110768597D01*
X114141402Y-110601506D01*
X114141396Y-110601501D01*
X113955842Y-110471575D01*
X113912217Y-110416998D01*
X113905023Y-110347500D01*
X113936546Y-110285145D01*
X113955842Y-110268425D01*
X113978026Y-110252891D01*
X114141401Y-110138495D01*
X114308495Y-109971401D01*
X114444035Y-109777830D01*
X114543903Y-109563663D01*
X114605063Y-109335408D01*
X114625659Y-109100000D01*
X114605063Y-108864592D01*
X114543903Y-108636337D01*
X114444035Y-108422171D01*
X114438425Y-108414158D01*
X114308494Y-108228597D01*
X114141402Y-108061506D01*
X114141396Y-108061501D01*
X113955842Y-107931575D01*
X113912217Y-107876998D01*
X113905023Y-107807500D01*
X113936546Y-107745145D01*
X113955842Y-107728425D01*
X113978026Y-107712891D01*
X114141401Y-107598495D01*
X114308495Y-107431401D01*
X114444035Y-107237830D01*
X114480533Y-107159559D01*
X114526704Y-107107122D01*
X114593898Y-107087970D01*
X114660779Y-107108186D01*
X114680595Y-107124285D01*
X117338181Y-109781871D01*
X117371666Y-109843194D01*
X117374500Y-109869552D01*
X117374500Y-119221311D01*
X117398535Y-119342144D01*
X117398540Y-119342161D01*
X117445685Y-119455981D01*
X117445690Y-119455990D01*
X117472030Y-119495409D01*
X117472031Y-119495410D01*
X117514141Y-119558432D01*
X117514144Y-119558436D01*
X117605586Y-119649878D01*
X117605608Y-119649898D01*
X121868529Y-123912819D01*
X121902014Y-123974142D01*
X121897030Y-124043834D01*
X121855158Y-124099767D01*
X121789694Y-124124184D01*
X121780848Y-124124500D01*
X121527130Y-124124500D01*
X121527123Y-124124501D01*
X121467516Y-124130908D01*
X121332671Y-124181202D01*
X121332664Y-124181206D01*
X121217455Y-124267452D01*
X121217452Y-124267455D01*
X121131206Y-124382664D01*
X121131202Y-124382671D01*
X121080908Y-124517517D01*
X121074501Y-124577116D01*
X121074500Y-124577135D01*
X121074500Y-127072870D01*
X121074501Y-127072876D01*
X121080908Y-127132483D01*
X121131202Y-127267328D01*
X121131206Y-127267335D01*
X121217452Y-127382544D01*
X121217455Y-127382547D01*
X121332664Y-127468793D01*
X121332671Y-127468797D01*
X121467517Y-127519091D01*
X121467516Y-127519091D01*
X121474444Y-127519835D01*
X121527127Y-127525500D01*
X123222872Y-127525499D01*
X123282483Y-127519091D01*
X123417331Y-127468796D01*
X123532546Y-127382546D01*
X123618796Y-127267331D01*
X123669091Y-127132483D01*
X123673061Y-127095556D01*
X123699796Y-127031011D01*
X123757188Y-126991161D01*
X123827013Y-126988666D01*
X123887102Y-127024317D01*
X123896667Y-127035929D01*
X123923032Y-127072217D01*
X124067786Y-127216971D01*
X124222749Y-127329556D01*
X124233390Y-127337287D01*
X124322212Y-127382544D01*
X124415776Y-127430218D01*
X124415778Y-127430218D01*
X124415781Y-127430220D01*
X124520137Y-127464127D01*
X124610465Y-127493477D01*
X124711557Y-127509488D01*
X124812648Y-127525500D01*
X124812649Y-127525500D01*
X125017351Y-127525500D01*
X125017352Y-127525500D01*
X125219534Y-127493477D01*
X125414219Y-127430220D01*
X125596610Y-127337287D01*
X125692901Y-127267328D01*
X125762213Y-127216971D01*
X125762215Y-127216968D01*
X125762219Y-127216966D01*
X125906966Y-127072219D01*
X125906968Y-127072215D01*
X125906971Y-127072213D01*
X126027284Y-126906614D01*
X126027283Y-126906614D01*
X126027287Y-126906610D01*
X126074516Y-126813917D01*
X126122489Y-126763123D01*
X126190310Y-126746328D01*
X126256445Y-126768865D01*
X126295485Y-126813919D01*
X126342715Y-126906614D01*
X126463028Y-127072213D01*
X126463034Y-127072219D01*
X126607781Y-127216966D01*
X126773390Y-127337287D01*
X126773399Y-127337291D01*
X126773775Y-127337522D01*
X126773890Y-127337649D01*
X126777332Y-127340150D01*
X126776806Y-127340872D01*
X126820651Y-127389333D01*
X126830604Y-127419060D01*
X126853535Y-127534344D01*
X126853538Y-127534354D01*
X126900687Y-127648183D01*
X126900692Y-127648192D01*
X126969141Y-127750632D01*
X126969144Y-127750636D01*
X127056263Y-127837755D01*
X127056267Y-127837758D01*
X127158707Y-127906207D01*
X127158713Y-127906210D01*
X127158714Y-127906211D01*
X127272548Y-127953363D01*
X127393389Y-127977399D01*
X127393393Y-127977400D01*
X127393394Y-127977400D01*
X132596607Y-127977400D01*
X132596608Y-127977399D01*
X132717452Y-127953363D01*
X132831286Y-127906211D01*
X132933733Y-127837758D01*
X133020858Y-127750633D01*
X133089311Y-127648186D01*
X133136463Y-127534352D01*
X133159395Y-127419057D01*
X133191779Y-127357150D01*
X133212773Y-127340295D01*
X133212668Y-127340150D01*
X133215678Y-127337962D01*
X133216235Y-127337516D01*
X133216592Y-127337295D01*
X133216610Y-127337287D01*
X133382219Y-127216966D01*
X133526966Y-127072219D01*
X133526968Y-127072215D01*
X133526971Y-127072213D01*
X133647284Y-126906614D01*
X133647283Y-126906614D01*
X133647287Y-126906610D01*
X133694516Y-126813917D01*
X133742489Y-126763123D01*
X133810310Y-126746328D01*
X133876445Y-126768865D01*
X133915485Y-126813919D01*
X133962715Y-126906614D01*
X134083028Y-127072213D01*
X134227786Y-127216971D01*
X134382749Y-127329556D01*
X134393390Y-127337287D01*
X134482212Y-127382544D01*
X134575776Y-127430218D01*
X134575778Y-127430218D01*
X134575781Y-127430220D01*
X134680137Y-127464127D01*
X134770465Y-127493477D01*
X134871557Y-127509488D01*
X134972648Y-127525500D01*
X134972649Y-127525500D01*
X135177351Y-127525500D01*
X135177352Y-127525500D01*
X135379534Y-127493477D01*
X135574219Y-127430220D01*
X135756610Y-127337287D01*
X135852901Y-127267328D01*
X135922213Y-127216971D01*
X135922215Y-127216968D01*
X135922219Y-127216966D01*
X136066966Y-127072219D01*
X136066968Y-127072215D01*
X136066971Y-127072213D01*
X136187284Y-126906614D01*
X136187283Y-126906614D01*
X136187287Y-126906610D01*
X136234795Y-126813369D01*
X136282770Y-126762574D01*
X136350591Y-126745779D01*
X136416725Y-126768316D01*
X136455765Y-126813370D01*
X136503140Y-126906349D01*
X136623417Y-127071894D01*
X136623417Y-127071895D01*
X136768104Y-127216582D01*
X136933650Y-127336859D01*
X137115968Y-127429754D01*
X137310578Y-127492988D01*
X137365000Y-127501607D01*
X137365000Y-126140686D01*
X137369394Y-126145080D01*
X137460606Y-126197741D01*
X137562339Y-126225000D01*
X137667661Y-126225000D01*
X137769394Y-126197741D01*
X137860606Y-126145080D01*
X137865000Y-126140686D01*
X137865000Y-127501606D01*
X137919421Y-127492988D01*
X138114031Y-127429754D01*
X138296349Y-127336859D01*
X138461894Y-127216582D01*
X138461895Y-127216582D01*
X138606582Y-127071895D01*
X138606582Y-127071894D01*
X138726859Y-126906349D01*
X138819755Y-126724031D01*
X138882990Y-126529417D01*
X138915000Y-126327317D01*
X138915000Y-126075000D01*
X137930686Y-126075000D01*
X137935080Y-126070606D01*
X137987741Y-125979394D01*
X138015000Y-125877661D01*
X138015000Y-125772339D01*
X137987741Y-125670606D01*
X137935080Y-125579394D01*
X137930686Y-125575000D01*
X138915000Y-125575000D01*
X138915000Y-125322682D01*
X138882990Y-125120582D01*
X138819755Y-124925968D01*
X138726859Y-124743650D01*
X138606582Y-124578105D01*
X138606582Y-124578104D01*
X138461895Y-124433417D01*
X138296349Y-124313140D01*
X138114029Y-124220244D01*
X137919413Y-124157009D01*
X137865000Y-124148390D01*
X137865000Y-125509314D01*
X137860606Y-125504920D01*
X137769394Y-125452259D01*
X137667661Y-125425000D01*
X137562339Y-125425000D01*
X137460606Y-125452259D01*
X137369394Y-125504920D01*
X137365000Y-125509314D01*
X137365000Y-124148390D01*
X137310586Y-124157009D01*
X137115970Y-124220244D01*
X136933650Y-124313140D01*
X136768105Y-124433417D01*
X136768104Y-124433417D01*
X136623417Y-124578104D01*
X136623417Y-124578105D01*
X136503140Y-124743650D01*
X136455765Y-124836629D01*
X136407790Y-124887425D01*
X136339969Y-124904220D01*
X136273834Y-124881682D01*
X136234795Y-124836629D01*
X136217998Y-124803663D01*
X136187287Y-124743390D01*
X136179556Y-124732749D01*
X136066971Y-124577786D01*
X135922213Y-124433028D01*
X135756616Y-124312717D01*
X135756612Y-124312715D01*
X135756610Y-124312713D01*
X135756606Y-124312711D01*
X135756228Y-124312479D01*
X135756111Y-124312349D01*
X135752669Y-124309849D01*
X135753194Y-124309126D01*
X135709350Y-124260670D01*
X135699394Y-124230936D01*
X135697174Y-124219776D01*
X135689502Y-124181206D01*
X135684593Y-124156523D01*
X135676463Y-124115648D01*
X135629311Y-124001814D01*
X135629310Y-124001813D01*
X135629307Y-124001807D01*
X135560858Y-123899367D01*
X135560855Y-123899363D01*
X135470637Y-123809145D01*
X135470606Y-123809116D01*
X134466819Y-122805329D01*
X134433334Y-122744006D01*
X134430500Y-122717648D01*
X134430500Y-119933686D01*
X134450185Y-119866647D01*
X134502989Y-119820892D01*
X134572147Y-119810948D01*
X134592808Y-119815752D01*
X134697719Y-119849840D01*
X134770465Y-119873477D01*
X134871557Y-119889488D01*
X134972648Y-119905500D01*
X134972649Y-119905500D01*
X135177351Y-119905500D01*
X135177352Y-119905500D01*
X135379534Y-119873477D01*
X135574219Y-119810220D01*
X135756610Y-119717287D01*
X135855337Y-119645558D01*
X135922213Y-119596971D01*
X135922215Y-119596968D01*
X135922219Y-119596966D01*
X136066966Y-119452219D01*
X136066968Y-119452215D01*
X136066971Y-119452213D01*
X136187284Y-119286614D01*
X136187285Y-119286613D01*
X136187287Y-119286610D01*
X136234516Y-119193917D01*
X136282489Y-119143123D01*
X136350310Y-119126328D01*
X136416445Y-119148865D01*
X136455483Y-119193917D01*
X136489154Y-119259999D01*
X136502715Y-119286614D01*
X136623028Y-119452213D01*
X136767786Y-119596971D01*
X136922749Y-119709556D01*
X136933390Y-119717287D01*
X137032702Y-119767889D01*
X137115776Y-119810218D01*
X137115778Y-119810218D01*
X137115781Y-119810220D01*
X137157644Y-119823822D01*
X137310465Y-119873477D01*
X137411557Y-119889488D01*
X137512648Y-119905500D01*
X137512649Y-119905500D01*
X137717351Y-119905500D01*
X137717352Y-119905500D01*
X137919534Y-119873477D01*
X138114219Y-119810220D01*
X138296610Y-119717287D01*
X138395337Y-119645558D01*
X138462213Y-119596971D01*
X138462215Y-119596968D01*
X138462219Y-119596966D01*
X138606966Y-119452219D01*
X138606968Y-119452215D01*
X138606971Y-119452213D01*
X138686934Y-119342151D01*
X138727287Y-119286610D01*
X138820220Y-119104219D01*
X138883477Y-118909534D01*
X138915500Y-118707352D01*
X138915500Y-117702648D01*
X138883477Y-117500466D01*
X138820220Y-117305781D01*
X138820218Y-117305778D01*
X138820218Y-117305776D01*
X138757998Y-117183664D01*
X138727287Y-117123390D01*
X138719556Y-117112749D01*
X138606971Y-116957786D01*
X138462213Y-116813028D01*
X138296613Y-116692715D01*
X138296612Y-116692714D01*
X138296610Y-116692713D01*
X138239653Y-116663691D01*
X138114223Y-116599781D01*
X137919534Y-116536522D01*
X137744995Y-116508878D01*
X137717352Y-116504500D01*
X137512648Y-116504500D01*
X137488329Y-116508351D01*
X137310465Y-116536522D01*
X137115776Y-116599781D01*
X136933386Y-116692715D01*
X136767786Y-116813028D01*
X136623028Y-116957786D01*
X136502715Y-117123386D01*
X136455485Y-117216080D01*
X136407510Y-117266876D01*
X136339689Y-117283671D01*
X136273554Y-117261134D01*
X136234515Y-117216080D01*
X136217998Y-117183664D01*
X136187287Y-117123390D01*
X136179556Y-117112749D01*
X136066971Y-116957786D01*
X135922213Y-116813028D01*
X135756613Y-116692715D01*
X135756612Y-116692714D01*
X135756610Y-116692713D01*
X135699653Y-116663691D01*
X135574223Y-116599781D01*
X135379534Y-116536522D01*
X135204995Y-116508878D01*
X135177352Y-116504500D01*
X134972648Y-116504500D01*
X134905254Y-116515174D01*
X134770464Y-116536523D01*
X134770461Y-116536523D01*
X134592818Y-116594243D01*
X134522977Y-116596238D01*
X134463144Y-116560157D01*
X134432316Y-116497456D01*
X134430500Y-116476312D01*
X134430500Y-96431796D01*
X134430500Y-96431794D01*
X134406463Y-96310948D01*
X134392652Y-96277607D01*
X134359312Y-96197114D01*
X134325084Y-96145890D01*
X134290858Y-96094667D01*
X134290856Y-96094664D01*
X134200637Y-96004445D01*
X134200606Y-96004416D01*
X123387869Y-85191679D01*
X123354384Y-85130356D01*
X123359368Y-85060664D01*
X123382757Y-85024288D01*
X123381566Y-85023289D01*
X123385043Y-85019144D01*
X123386546Y-85016998D01*
X123515568Y-84832734D01*
X123611739Y-84626496D01*
X123670635Y-84406692D01*
X123690468Y-84180000D01*
X123670635Y-83953308D01*
X123611739Y-83733504D01*
X123551071Y-83603403D01*
X123540580Y-83534328D01*
X123569099Y-83470544D01*
X123627576Y-83432304D01*
X123663454Y-83427000D01*
X132858207Y-83427000D01*
X132918629Y-83414981D01*
X132979052Y-83402963D01*
X132979055Y-83402961D01*
X132979058Y-83402961D01*
X133012387Y-83389154D01*
X133012386Y-83389154D01*
X133012392Y-83389152D01*
X133092886Y-83355812D01*
X133155302Y-83314106D01*
X133155303Y-83314106D01*
X133181806Y-83296396D01*
X133195333Y-83287358D01*
X133282458Y-83200233D01*
X133282458Y-83200231D01*
X133292666Y-83190024D01*
X133292667Y-83190021D01*
X136496572Y-79986117D01*
X136557893Y-79952634D01*
X136627585Y-79957618D01*
X136671932Y-79986119D01*
X136785858Y-80100045D01*
X136785861Y-80100047D01*
X136972266Y-80230568D01*
X137030275Y-80257618D01*
X137082714Y-80303791D01*
X137101866Y-80370984D01*
X137081650Y-80437865D01*
X137030275Y-80482382D01*
X136972267Y-80509431D01*
X136972265Y-80509432D01*
X136785858Y-80639954D01*
X136624954Y-80800858D01*
X136494432Y-80987265D01*
X136494431Y-80987267D01*
X136398261Y-81193502D01*
X136398258Y-81193511D01*
X136339366Y-81413302D01*
X136339364Y-81413313D01*
X136319532Y-81639998D01*
X136319532Y-81640001D01*
X136339364Y-81866686D01*
X136339366Y-81866697D01*
X136398258Y-82086488D01*
X136398261Y-82086497D01*
X136494431Y-82292732D01*
X136494432Y-82292734D01*
X136624954Y-82479141D01*
X136785858Y-82640045D01*
X136785861Y-82640047D01*
X136972266Y-82770568D01*
X137030275Y-82797618D01*
X137082714Y-82843791D01*
X137101866Y-82910984D01*
X137081650Y-82977865D01*
X137030275Y-83022382D01*
X136972267Y-83049431D01*
X136972265Y-83049432D01*
X136785858Y-83179954D01*
X136624954Y-83340858D01*
X136494432Y-83527265D01*
X136494431Y-83527267D01*
X136398261Y-83733502D01*
X136398258Y-83733511D01*
X136339366Y-83953302D01*
X136339364Y-83953313D01*
X136319532Y-84179998D01*
X136319532Y-84180001D01*
X136339364Y-84406686D01*
X136339366Y-84406697D01*
X136398258Y-84626488D01*
X136398261Y-84626497D01*
X136494431Y-84832732D01*
X136494432Y-84832734D01*
X136624954Y-85019141D01*
X136785858Y-85180045D01*
X136785861Y-85180047D01*
X136972266Y-85310568D01*
X137022295Y-85333897D01*
X137030275Y-85337618D01*
X137082714Y-85383791D01*
X137101866Y-85450984D01*
X137081650Y-85517865D01*
X137030275Y-85562382D01*
X136972267Y-85589431D01*
X136972265Y-85589432D01*
X136785858Y-85719954D01*
X136624954Y-85880858D01*
X136494432Y-86067265D01*
X136494431Y-86067267D01*
X136398261Y-86273502D01*
X136398258Y-86273511D01*
X136339366Y-86493302D01*
X136339364Y-86493313D01*
X136319532Y-86719998D01*
X136319532Y-86720001D01*
X136339364Y-86946686D01*
X136339366Y-86946697D01*
X136398258Y-87166488D01*
X136398261Y-87166497D01*
X136494431Y-87372732D01*
X136494432Y-87372734D01*
X136624954Y-87559141D01*
X136785858Y-87720045D01*
X136785861Y-87720047D01*
X136972266Y-87850568D01*
X137030275Y-87877618D01*
X137082714Y-87923791D01*
X137101866Y-87990984D01*
X137081650Y-88057865D01*
X137030275Y-88102382D01*
X136972267Y-88129431D01*
X136972265Y-88129432D01*
X136785858Y-88259954D01*
X136624954Y-88420858D01*
X136494432Y-88607265D01*
X136494431Y-88607267D01*
X136398261Y-88813502D01*
X136398258Y-88813511D01*
X136339366Y-89033302D01*
X136339364Y-89033313D01*
X136319532Y-89259998D01*
X136319532Y-89260001D01*
X136339364Y-89486686D01*
X136339366Y-89486697D01*
X136398258Y-89706488D01*
X136398261Y-89706497D01*
X136494431Y-89912732D01*
X136494432Y-89912734D01*
X136624954Y-90099141D01*
X136785858Y-90260045D01*
X136785861Y-90260047D01*
X136972266Y-90390568D01*
X137030275Y-90417618D01*
X137082714Y-90463791D01*
X137101866Y-90530984D01*
X137081650Y-90597865D01*
X137030275Y-90642382D01*
X136972267Y-90669431D01*
X136972265Y-90669432D01*
X136785858Y-90799954D01*
X136624954Y-90960858D01*
X136494432Y-91147265D01*
X136494431Y-91147267D01*
X136398261Y-91353502D01*
X136398258Y-91353511D01*
X136339366Y-91573302D01*
X136339364Y-91573313D01*
X136319532Y-91799998D01*
X136319532Y-91800001D01*
X136339364Y-92026686D01*
X136339366Y-92026697D01*
X136398258Y-92246488D01*
X136398261Y-92246497D01*
X136494431Y-92452732D01*
X136494432Y-92452734D01*
X136624954Y-92639141D01*
X136785858Y-92800045D01*
X136785861Y-92800047D01*
X136972266Y-92930568D01*
X137030275Y-92957618D01*
X137082714Y-93003791D01*
X137101866Y-93070984D01*
X137081650Y-93137865D01*
X137030275Y-93182382D01*
X136972267Y-93209431D01*
X136972265Y-93209432D01*
X136785858Y-93339954D01*
X136624954Y-93500858D01*
X136494432Y-93687265D01*
X136494431Y-93687267D01*
X136398261Y-93893502D01*
X136398258Y-93893511D01*
X136339366Y-94113302D01*
X136339364Y-94113313D01*
X136319532Y-94339998D01*
X136319532Y-94340001D01*
X136339364Y-94566686D01*
X136339366Y-94566697D01*
X136398258Y-94786488D01*
X136398261Y-94786497D01*
X136494431Y-94992732D01*
X136494432Y-94992734D01*
X136624954Y-95179141D01*
X136785858Y-95340045D01*
X136785861Y-95340047D01*
X136972266Y-95470568D01*
X137030275Y-95497618D01*
X137082714Y-95543791D01*
X137101866Y-95610984D01*
X137081650Y-95677865D01*
X137030275Y-95722382D01*
X136972267Y-95749431D01*
X136972265Y-95749432D01*
X136785858Y-95879954D01*
X136624954Y-96040858D01*
X136494432Y-96227265D01*
X136494431Y-96227267D01*
X136398261Y-96433502D01*
X136398258Y-96433511D01*
X136339366Y-96653302D01*
X136339364Y-96653313D01*
X136319532Y-96879998D01*
X136319532Y-96880001D01*
X136339364Y-97106686D01*
X136339366Y-97106697D01*
X136398258Y-97326488D01*
X136398261Y-97326497D01*
X136494431Y-97532732D01*
X136494432Y-97532734D01*
X136624954Y-97719141D01*
X136785858Y-97880045D01*
X136785861Y-97880047D01*
X136972266Y-98010568D01*
X137030275Y-98037618D01*
X137082714Y-98083791D01*
X137101866Y-98150984D01*
X137081650Y-98217865D01*
X137030275Y-98262382D01*
X136972267Y-98289431D01*
X136972265Y-98289432D01*
X136785858Y-98419954D01*
X136624954Y-98580858D01*
X136494432Y-98767265D01*
X136494431Y-98767267D01*
X136398261Y-98973502D01*
X136398258Y-98973511D01*
X136339366Y-99193302D01*
X136339364Y-99193313D01*
X136319532Y-99419998D01*
X136319532Y-99420001D01*
X136339364Y-99646686D01*
X136339366Y-99646697D01*
X136398258Y-99866488D01*
X136398261Y-99866497D01*
X136494431Y-100072732D01*
X136494432Y-100072734D01*
X136624954Y-100259141D01*
X136785858Y-100420045D01*
X136785861Y-100420047D01*
X136972266Y-100550568D01*
X137030275Y-100577618D01*
X137082714Y-100623791D01*
X137101866Y-100690984D01*
X137081650Y-100757865D01*
X137030275Y-100802382D01*
X136972267Y-100829431D01*
X136972265Y-100829432D01*
X136785858Y-100959954D01*
X136624954Y-101120858D01*
X136494432Y-101307265D01*
X136494431Y-101307267D01*
X136398261Y-101513502D01*
X136398258Y-101513511D01*
X136339366Y-101733302D01*
X136339364Y-101733313D01*
X136319532Y-101959998D01*
X136319532Y-101960001D01*
X136339364Y-102186686D01*
X136339366Y-102186697D01*
X136398258Y-102406488D01*
X136398261Y-102406497D01*
X136494431Y-102612732D01*
X136494432Y-102612734D01*
X136624954Y-102799141D01*
X136785858Y-102960045D01*
X136811086Y-102977710D01*
X136854711Y-103032287D01*
X136861905Y-103101785D01*
X136830382Y-103164140D01*
X136770153Y-103199554D01*
X136753221Y-103202574D01*
X136717626Y-103206401D01*
X136717620Y-103206403D01*
X136582913Y-103256645D01*
X136582906Y-103256649D01*
X136467812Y-103342809D01*
X136467809Y-103342812D01*
X136381649Y-103457906D01*
X136381645Y-103457913D01*
X136331403Y-103592620D01*
X136331401Y-103592627D01*
X136325000Y-103652155D01*
X136325000Y-104250000D01*
X137309314Y-104250000D01*
X137304920Y-104254394D01*
X137252259Y-104345606D01*
X137225000Y-104447339D01*
X137225000Y-104552661D01*
X137252259Y-104654394D01*
X137304920Y-104745606D01*
X137309314Y-104750000D01*
X136325000Y-104750000D01*
X136325000Y-105347844D01*
X136331401Y-105407372D01*
X136331403Y-105407379D01*
X136381645Y-105542086D01*
X136381649Y-105542093D01*
X136467809Y-105657187D01*
X136467812Y-105657190D01*
X136582906Y-105743350D01*
X136582913Y-105743354D01*
X136717620Y-105793596D01*
X136717627Y-105793598D01*
X136777155Y-105799999D01*
X136777172Y-105800000D01*
X137375000Y-105800000D01*
X137375000Y-104815686D01*
X137379394Y-104820080D01*
X137470606Y-104872741D01*
X137572339Y-104900000D01*
X137677661Y-104900000D01*
X137779394Y-104872741D01*
X137870606Y-104820080D01*
X137875000Y-104815686D01*
X137875000Y-105800000D01*
X138472828Y-105800000D01*
X138472844Y-105799999D01*
X138532372Y-105793598D01*
X138532379Y-105793596D01*
X138667086Y-105743354D01*
X138667093Y-105743350D01*
X138782187Y-105657190D01*
X138782190Y-105657187D01*
X138868350Y-105542093D01*
X138868354Y-105542086D01*
X138918596Y-105407379D01*
X138918598Y-105407372D01*
X138924999Y-105347844D01*
X138925000Y-105347827D01*
X138925000Y-104750000D01*
X137940686Y-104750000D01*
X137945080Y-104745606D01*
X137997741Y-104654394D01*
X138025000Y-104552661D01*
X138025000Y-104447339D01*
X137997741Y-104345606D01*
X137945080Y-104254394D01*
X137940686Y-104250000D01*
X138925000Y-104250000D01*
X138925000Y-103652172D01*
X138924999Y-103652155D01*
X138918598Y-103592627D01*
X138918596Y-103592620D01*
X138868354Y-103457913D01*
X138868350Y-103457906D01*
X138782190Y-103342812D01*
X138782187Y-103342809D01*
X138667093Y-103256649D01*
X138667086Y-103256645D01*
X138532379Y-103206403D01*
X138532373Y-103206401D01*
X138496778Y-103202574D01*
X138432228Y-103175835D01*
X138392381Y-103118441D01*
X138389888Y-103048616D01*
X138425542Y-102988528D01*
X138438913Y-102977710D01*
X138464139Y-102960047D01*
X138625047Y-102799139D01*
X138755568Y-102612734D01*
X138851739Y-102406496D01*
X138910635Y-102186692D01*
X138930468Y-101960000D01*
X138910635Y-101733308D01*
X138851739Y-101513504D01*
X138755568Y-101307266D01*
X138625047Y-101120861D01*
X138625045Y-101120858D01*
X138464141Y-100959954D01*
X138277734Y-100829432D01*
X138277728Y-100829429D01*
X138219725Y-100802382D01*
X138167285Y-100756210D01*
X138148133Y-100689017D01*
X138168348Y-100622135D01*
X138219725Y-100577618D01*
X138277734Y-100550568D01*
X138464139Y-100420047D01*
X138625047Y-100259139D01*
X138755568Y-100072734D01*
X138851739Y-99866496D01*
X138910635Y-99646692D01*
X138930468Y-99420000D01*
X138910635Y-99193308D01*
X138851739Y-98973504D01*
X138755568Y-98767266D01*
X138629917Y-98587816D01*
X138625045Y-98580858D01*
X138464141Y-98419954D01*
X138277734Y-98289432D01*
X138277728Y-98289429D01*
X138250038Y-98276517D01*
X138219724Y-98262381D01*
X138167285Y-98216210D01*
X138148133Y-98149017D01*
X138168348Y-98082135D01*
X138219725Y-98037618D01*
X138277734Y-98010568D01*
X138464139Y-97880047D01*
X138625047Y-97719139D01*
X138755568Y-97532734D01*
X138851739Y-97326496D01*
X138910635Y-97106692D01*
X138930468Y-96880000D01*
X138929426Y-96868094D01*
X138910635Y-96653313D01*
X138910635Y-96653308D01*
X138851739Y-96433504D01*
X138755568Y-96227266D01*
X138625047Y-96040861D01*
X138625045Y-96040858D01*
X138464141Y-95879954D01*
X138277734Y-95749432D01*
X138277728Y-95749429D01*
X138219725Y-95722382D01*
X138167285Y-95676210D01*
X138148133Y-95609017D01*
X138168348Y-95542135D01*
X138219725Y-95497618D01*
X138277734Y-95470568D01*
X138464139Y-95340047D01*
X138625047Y-95179139D01*
X138755568Y-94992734D01*
X138851739Y-94786496D01*
X138910635Y-94566692D01*
X138930468Y-94340000D01*
X138910635Y-94113308D01*
X138851739Y-93893504D01*
X138755568Y-93687266D01*
X138625047Y-93500861D01*
X138625045Y-93500858D01*
X138464141Y-93339954D01*
X138277734Y-93209432D01*
X138277728Y-93209429D01*
X138219725Y-93182382D01*
X138167285Y-93136210D01*
X138148133Y-93069017D01*
X138168348Y-93002135D01*
X138219725Y-92957618D01*
X138277734Y-92930568D01*
X138464139Y-92800047D01*
X138625047Y-92639139D01*
X138755568Y-92452734D01*
X138851739Y-92246496D01*
X138910635Y-92026692D01*
X138930468Y-91800000D01*
X138910635Y-91573308D01*
X138851739Y-91353504D01*
X138755568Y-91147266D01*
X138625047Y-90960861D01*
X138625045Y-90960858D01*
X138464141Y-90799954D01*
X138277734Y-90669432D01*
X138277728Y-90669429D01*
X138219725Y-90642382D01*
X138167285Y-90596210D01*
X138148133Y-90529017D01*
X138168348Y-90462135D01*
X138219725Y-90417618D01*
X138277734Y-90390568D01*
X138464139Y-90260047D01*
X138625047Y-90099139D01*
X138755568Y-89912734D01*
X138851739Y-89706496D01*
X138910635Y-89486692D01*
X138930468Y-89260000D01*
X138910635Y-89033308D01*
X138851739Y-88813504D01*
X138755568Y-88607266D01*
X138625047Y-88420861D01*
X138625045Y-88420858D01*
X138464141Y-88259954D01*
X138277734Y-88129432D01*
X138277728Y-88129429D01*
X138219725Y-88102382D01*
X138167285Y-88056210D01*
X138148133Y-87989017D01*
X138168348Y-87922135D01*
X138219725Y-87877618D01*
X138277734Y-87850568D01*
X138464139Y-87720047D01*
X138625047Y-87559139D01*
X138755568Y-87372734D01*
X138851739Y-87166496D01*
X138910635Y-86946692D01*
X138930468Y-86720000D01*
X138910635Y-86493308D01*
X138851739Y-86273504D01*
X138755568Y-86067266D01*
X138625047Y-85880861D01*
X138625045Y-85880858D01*
X138464141Y-85719954D01*
X138277734Y-85589432D01*
X138277728Y-85589429D01*
X138219725Y-85562382D01*
X138167285Y-85516210D01*
X138148133Y-85449017D01*
X138168348Y-85382135D01*
X138219725Y-85337618D01*
X138277734Y-85310568D01*
X138464139Y-85180047D01*
X138625047Y-85019139D01*
X138755568Y-84832734D01*
X138851739Y-84626496D01*
X138910635Y-84406692D01*
X138930468Y-84180000D01*
X138910635Y-83953308D01*
X138851739Y-83733504D01*
X138755568Y-83527266D01*
X138625047Y-83340861D01*
X138625045Y-83340858D01*
X138464141Y-83179954D01*
X138277734Y-83049432D01*
X138277728Y-83049429D01*
X138219725Y-83022382D01*
X138167285Y-82976210D01*
X138148133Y-82909017D01*
X138168348Y-82842135D01*
X138219725Y-82797618D01*
X138277734Y-82770568D01*
X138464139Y-82640047D01*
X138625047Y-82479139D01*
X138755568Y-82292734D01*
X138851739Y-82086496D01*
X138910635Y-81866692D01*
X138930468Y-81640000D01*
X138910635Y-81413308D01*
X138851739Y-81193504D01*
X138755568Y-80987266D01*
X138625047Y-80800861D01*
X138625045Y-80800858D01*
X138464141Y-80639954D01*
X138277734Y-80509432D01*
X138277728Y-80509429D01*
X138219725Y-80482382D01*
X138167285Y-80436210D01*
X138148133Y-80369017D01*
X138168348Y-80302135D01*
X138219725Y-80257618D01*
X138277734Y-80230568D01*
X138464139Y-80100047D01*
X138625047Y-79939139D01*
X138755568Y-79752734D01*
X138851739Y-79546496D01*
X138910635Y-79326692D01*
X138930468Y-79100000D01*
X138910635Y-78873308D01*
X138851739Y-78653504D01*
X138755568Y-78447266D01*
X138625047Y-78260861D01*
X138625045Y-78260858D01*
X138464141Y-78099954D01*
X138277734Y-77969432D01*
X138277728Y-77969429D01*
X138250038Y-77956517D01*
X138219724Y-77942381D01*
X138167285Y-77896210D01*
X138148133Y-77829017D01*
X138168348Y-77762135D01*
X138219725Y-77717618D01*
X138277734Y-77690568D01*
X138464139Y-77560047D01*
X138625047Y-77399139D01*
X138755568Y-77212734D01*
X138851739Y-77006496D01*
X138910635Y-76786692D01*
X138930468Y-76560000D01*
X138910635Y-76333308D01*
X138851739Y-76113504D01*
X138755568Y-75907266D01*
X138625047Y-75720861D01*
X138625045Y-75720858D01*
X138464141Y-75559954D01*
X138277734Y-75429432D01*
X138277728Y-75429429D01*
X138219725Y-75402382D01*
X138167285Y-75356210D01*
X138148133Y-75289017D01*
X138168348Y-75222135D01*
X138219725Y-75177618D01*
X138277734Y-75150568D01*
X138464139Y-75020047D01*
X138625047Y-74859139D01*
X138755568Y-74672734D01*
X138851739Y-74466496D01*
X138910635Y-74246692D01*
X138930468Y-74020000D01*
X138910635Y-73793308D01*
X138851739Y-73573504D01*
X138755568Y-73367266D01*
X138625047Y-73180861D01*
X138625045Y-73180858D01*
X138464141Y-73019954D01*
X138277734Y-72889432D01*
X138277732Y-72889431D01*
X138219725Y-72862382D01*
X138219132Y-72862105D01*
X138166694Y-72815934D01*
X138147542Y-72748740D01*
X138167758Y-72681859D01*
X138219134Y-72637341D01*
X138277484Y-72610132D01*
X138463820Y-72479657D01*
X138624657Y-72318820D01*
X138755134Y-72132482D01*
X138851265Y-71926326D01*
X138851269Y-71926317D01*
X138903872Y-71730000D01*
X137940686Y-71730000D01*
X137945080Y-71725606D01*
X137997741Y-71634394D01*
X138025000Y-71532661D01*
X138025000Y-71427339D01*
X137997741Y-71325606D01*
X137945080Y-71234394D01*
X137940686Y-71230000D01*
X138903872Y-71230000D01*
X138903872Y-71229999D01*
X138851269Y-71033682D01*
X138851265Y-71033673D01*
X138755134Y-70827517D01*
X138624657Y-70641179D01*
X138463820Y-70480342D01*
X138277482Y-70349865D01*
X138071328Y-70253734D01*
X137875000Y-70201127D01*
X137875000Y-71164314D01*
X137870606Y-71159920D01*
X137779394Y-71107259D01*
X137677661Y-71080000D01*
X137572339Y-71080000D01*
X137470606Y-71107259D01*
X137379394Y-71159920D01*
X137375000Y-71164314D01*
X137375000Y-70201127D01*
X137178671Y-70253734D01*
X136972517Y-70349865D01*
X136786179Y-70480342D01*
X136625342Y-70641179D01*
X136494865Y-70827517D01*
X136398734Y-71033673D01*
X136398730Y-71033682D01*
X136346127Y-71229999D01*
X136346128Y-71230000D01*
X137309314Y-71230000D01*
X137304920Y-71234394D01*
X137252259Y-71325606D01*
X137225000Y-71427339D01*
X137225000Y-71532661D01*
X137252259Y-71634394D01*
X137304920Y-71725606D01*
X137309314Y-71730000D01*
X136346128Y-71730000D01*
X136398730Y-71926317D01*
X136398734Y-71926326D01*
X136494865Y-72132482D01*
X136625342Y-72318820D01*
X136786179Y-72479657D01*
X136972518Y-72610134D01*
X136972520Y-72610135D01*
X137030865Y-72637342D01*
X137083305Y-72683514D01*
X137102457Y-72750707D01*
X137082242Y-72817589D01*
X137030867Y-72862105D01*
X137030275Y-72862382D01*
X136972264Y-72889433D01*
X136785858Y-73019954D01*
X136624954Y-73180858D01*
X136494432Y-73367265D01*
X136494431Y-73367267D01*
X136398261Y-73573502D01*
X136398258Y-73573511D01*
X136339366Y-73793302D01*
X136339364Y-73793313D01*
X136319532Y-74019998D01*
X136319532Y-74020001D01*
X136339364Y-74246686D01*
X136339366Y-74246697D01*
X136398258Y-74466488D01*
X136398261Y-74466497D01*
X136494431Y-74672732D01*
X136494432Y-74672734D01*
X136624954Y-74859141D01*
X136785858Y-75020045D01*
X136785861Y-75020047D01*
X136972266Y-75150568D01*
X137030275Y-75177618D01*
X137082714Y-75223791D01*
X137101866Y-75290984D01*
X137081650Y-75357865D01*
X137030275Y-75402382D01*
X136972267Y-75429431D01*
X136972265Y-75429432D01*
X136785858Y-75559954D01*
X136624954Y-75720858D01*
X136494432Y-75907265D01*
X136494431Y-75907267D01*
X136398261Y-76113502D01*
X136398258Y-76113511D01*
X136339366Y-76333302D01*
X136339364Y-76333313D01*
X136319532Y-76559998D01*
X136319532Y-76560001D01*
X136339364Y-76786686D01*
X136339366Y-76786697D01*
X136398258Y-77006488D01*
X136398261Y-77006497D01*
X136494431Y-77212732D01*
X136494432Y-77212734D01*
X136624954Y-77399141D01*
X136785858Y-77560045D01*
X136785861Y-77560047D01*
X136972266Y-77690568D01*
X137030275Y-77717618D01*
X137082714Y-77763791D01*
X137101866Y-77830984D01*
X137081650Y-77897865D01*
X137030275Y-77942381D01*
X137013272Y-77950310D01*
X136972267Y-77969431D01*
X136972265Y-77969432D01*
X136785858Y-78099954D01*
X136624954Y-78260858D01*
X136510209Y-78424734D01*
X136455633Y-78468359D01*
X136432827Y-78475228D01*
X136335697Y-78494548D01*
X136335693Y-78494548D01*
X136315649Y-78498536D01*
X136315647Y-78498536D01*
X136268497Y-78518067D01*
X136201819Y-78545685D01*
X136201817Y-78545686D01*
X136099366Y-78614141D01*
X136099363Y-78614144D01*
X132573829Y-82139681D01*
X132512506Y-82173166D01*
X132486148Y-82176000D01*
X123749357Y-82176000D01*
X123682318Y-82156315D01*
X123636563Y-82103511D01*
X123626619Y-82034353D01*
X123629582Y-82019907D01*
X123649518Y-81945501D01*
X123670635Y-81866692D01*
X123690468Y-81640000D01*
X123670635Y-81413308D01*
X123611739Y-81193504D01*
X123515568Y-80987266D01*
X123385047Y-80800861D01*
X123385045Y-80800858D01*
X123224141Y-80639954D01*
X123060264Y-80525207D01*
X123016639Y-80470630D01*
X123009770Y-80447823D01*
X122991042Y-80353670D01*
X122997269Y-80284078D01*
X123040132Y-80228901D01*
X123041326Y-80228052D01*
X123224139Y-80100047D01*
X123385047Y-79939139D01*
X123515568Y-79752734D01*
X123611739Y-79546496D01*
X123670635Y-79326692D01*
X123690468Y-79100000D01*
X123670635Y-78873308D01*
X123611739Y-78653504D01*
X123515568Y-78447266D01*
X123385047Y-78260861D01*
X123385045Y-78260858D01*
X123224141Y-78099954D01*
X123037734Y-77969432D01*
X123037728Y-77969429D01*
X123010038Y-77956517D01*
X122979724Y-77942381D01*
X122927285Y-77896210D01*
X122908133Y-77829017D01*
X122928348Y-77762135D01*
X122979725Y-77717618D01*
X123037734Y-77690568D01*
X123224139Y-77560047D01*
X123385047Y-77399139D01*
X123515568Y-77212734D01*
X123611739Y-77006496D01*
X123670635Y-76786692D01*
X123690468Y-76560000D01*
X123670635Y-76333308D01*
X123611739Y-76113504D01*
X123515568Y-75907266D01*
X123385047Y-75720861D01*
X123385045Y-75720858D01*
X123224141Y-75559954D01*
X123037734Y-75429432D01*
X123037728Y-75429429D01*
X122979725Y-75402382D01*
X122927285Y-75356210D01*
X122908133Y-75289017D01*
X122928348Y-75222135D01*
X122979725Y-75177618D01*
X123037734Y-75150568D01*
X123224139Y-75020047D01*
X123385047Y-74859139D01*
X123515568Y-74672734D01*
X123611739Y-74466496D01*
X123670635Y-74246692D01*
X123690468Y-74020000D01*
X123670635Y-73793308D01*
X123652318Y-73724947D01*
X123653981Y-73655101D01*
X123684410Y-73605178D01*
X124398729Y-72890860D01*
X124398733Y-72890858D01*
X124485858Y-72803733D01*
X124522603Y-72748740D01*
X124545458Y-72714536D01*
X124545459Y-72714533D01*
X124546308Y-72713263D01*
X124554312Y-72701285D01*
X124601463Y-72587451D01*
X124625500Y-72466607D01*
X124625500Y-72343393D01*
X124625500Y-70067741D01*
X124625501Y-70067720D01*
X124625501Y-69938391D01*
X124601464Y-69817553D01*
X124601462Y-69817547D01*
X124591098Y-69792526D01*
X124591093Y-69792516D01*
X124591068Y-69792454D01*
X124576794Y-69757993D01*
X124554312Y-69703715D01*
X124554311Y-69703713D01*
X124554310Y-69703711D01*
X124485858Y-69601267D01*
X124485855Y-69601263D01*
X123492928Y-68608338D01*
X123492925Y-68608334D01*
X123492925Y-68608335D01*
X123485858Y-68601268D01*
X123485858Y-68601267D01*
X123398733Y-68514142D01*
X123398732Y-68514141D01*
X123398731Y-68514140D01*
X123347509Y-68479915D01*
X123296286Y-68445688D01*
X123296283Y-68445686D01*
X123296280Y-68445685D01*
X123215792Y-68412347D01*
X123182453Y-68398537D01*
X123172427Y-68396543D01*
X123122029Y-68386518D01*
X123061610Y-68374500D01*
X123061607Y-68374500D01*
X123061606Y-68374500D01*
X109061606Y-68374500D01*
X108938394Y-68374500D01*
X108938389Y-68374500D01*
X108817555Y-68398535D01*
X108817545Y-68398538D01*
X108703716Y-68445687D01*
X108703707Y-68445692D01*
X108601267Y-68514141D01*
X108601263Y-68514144D01*
X108514144Y-68601263D01*
X108514141Y-68601267D01*
X108445692Y-68703707D01*
X108445687Y-68703716D01*
X108398538Y-68817545D01*
X108398535Y-68817555D01*
X108374500Y-68938389D01*
X108000000Y-68938389D01*
X108000000Y-68124000D01*
X108019685Y-68056961D01*
X108072489Y-68011206D01*
X108124000Y-68000000D01*
X140876000Y-68000000D01*
X140943039Y-68019685D01*
G37*
%TD.AperFunction*%
%TD*%
M02*
